<svg width="24" height="24" viewBox="0 0 24 24" fill="none" xmlns="http://www.w3.org/2000/svg">
<path d="M13.4928 22.47H10.5078V23.97H13.4928V22.47Z" fill="white"/>
<path d="M12.8434 11.97H11.1484V16.7475H12.8434V11.97Z" fill="white"/>
<path d="M12 1.5H12.135H12.3H12.4425H12.66H12.75C12.9075 1.5 13.0725 1.545 13.2675 1.59H13.35C13.5071 1.62455 13.6623 1.6671 13.815 1.7175L13.98 1.77L14.3475 1.9125H14.415L14.535 1.965L14.865 2.1375L15.255 2.37L15.3375 2.4225L15.4575 2.4975C15.5475 2.565 15.6375 2.6325 15.72 2.7075L15.8775 2.8275L16.1325 3.06L16.245 3.1725L16.455 3.39L16.665 3.645L16.8825 3.9375C16.95 4.0425 17.025 4.1475 17.085 4.2525L17.16 4.38C17.2275 4.5 17.295 4.6275 17.355 4.755V4.8V4.875C17.5165 5.22832 17.6397 5.59793 17.7225 5.9775V5.9775V6.015C17.7225 6.135 17.775 6.2625 17.7975 6.39C17.7942 6.43994 17.7942 6.49006 17.7975 6.54C17.7975 6.7275 17.835 6.9225 17.8425 7.14C17.865 7.27102 17.919 7.39459 18 7.5V7.5C17.996 7.56494 17.996 7.63006 18 7.695C18 7.965 18 8.175 17.955 8.355C17.955 8.4 17.955 8.4525 17.955 8.4975V8.6475C17.9175 8.82 17.88 9.0075 17.835 9.165C17.79 9.3225 17.7825 9.33 17.76 9.405V9.4725C17.7 9.66 17.64 9.8025 17.5875 9.9375L17.445 10.23C17.37 10.3725 17.2875 10.515 17.205 10.65L17.0325 10.9275C16.95 11.04 16.86 11.16 16.725 11.3175L16.6575 11.4075C16.6125 11.46 16.575 11.5125 16.53 11.5575C16.4071 11.6897 16.2769 11.8149 16.14 11.9325L16.02 12.0525L15.9525 12.1125L15.87 12.1875C15.224 12.7113 14.6913 13.3611 14.3045 14.0973C13.9177 14.8336 13.6848 15.6408 13.62 16.47H10.5C10.4344 15.641 10.2011 14.8341 9.81434 14.0979C9.42758 13.3618 8.89538 12.7119 8.25 12.1875L8.1675 12.1125L8.1 12.0525L7.98 11.9325C7.84307 11.8149 7.71287 11.6897 7.59 11.5575C7.545 11.5125 7.5075 11.46 7.4625 11.4075L7.395 11.3175C7.26 11.16 7.17 11.04 7.0875 10.9275L6.915 10.65C6.8325 10.515 6.75 10.3725 6.675 10.23C6.6 10.0875 6.5775 10.035 6.5325 9.93C6.4875 9.825 6.42 9.66 6.36 9.4725V9.405C6.36 9.33 6.3075 9.2475 6.285 9.165C6.2625 9.0825 6.2025 8.8275 6.165 8.6475V8.4975C6.165 8.4525 6.165 8.4 6.165 8.355C6.165 8.175 6.1275 7.9725 6.12 7.695C6.08438 7.6274 6.04429 7.56226 6 7.5C6.00374 7.45257 6.00374 7.40493 6 7.3575C6 7.14 6 6.9375 6.045 6.7425C6.04907 6.69509 6.04907 6.64741 6.045 6.6C6.045 6.4725 6.09 6.345 6.12 6.21C6.20646 5.82566 6.33211 5.4512 6.495 5.0925L6.5325 5.0175V4.9725C6.5925 4.845 6.66 4.7175 6.7275 4.5975L6.8025 4.47C6.8625 4.365 6.9375 4.26 7.0125 4.155C7.0875 4.05 7.155 3.9525 7.23 3.8625V3.8175L7.5 3.57C7.56363 3.49637 7.63123 3.42627 7.7025 3.36V3.3225L7.815 3.2175L8.07 2.985L8.2275 2.865C8.31276 2.7891 8.40295 2.71895 8.4975 2.655L8.61 2.58L8.6925 2.5275L9.1425 2.25L9.4725 2.0775L9.5925 2.025H9.66L10.0275 1.8825L10.1925 1.83C10.3425 1.7775 10.5 1.74 10.65 1.7025H10.7475C10.935 1.6575 11.1075 1.635 11.265 1.6125H11.34H11.5575H11.7H11.865H12V1.5ZM12 0.1125H11.625C11.475 0.1125 11.325 0.1125 11.175 0.1125C10.935 0.1125 10.695 0.1875 10.4625 0.2325H10.35C10.155 0.2775 9.96 0.33 9.765 0.39L9.5325 0.45L9.075 0.63L8.835 0.75L8.4225 0.96C8.2575 1.05 8.0925 1.1475 7.935 1.2525L7.6875 1.4175L7.35 1.6725L7.155 1.83L6.84 2.115L6.66 2.25C6.5625 2.3475 6.465 2.445 6.375 2.55C6.28123 2.65224 6.19358 2.75993 6.1125 2.8725C6.015 2.9925 5.925 3.1125 5.835 3.24C5.745 3.3675 5.6625 3.5025 5.58 3.6375C5.53565 3.69972 5.49556 3.76487 5.46 3.8325L5.25 4.3425L5.145 4.5C4.94061 4.95815 4.78233 5.4355 4.6725 5.925V5.925C4.635 6.0975 4.605 6.27 4.575 6.45C4.575 6.495 4.575 6.5325 4.575 6.5775C4.54233 6.82621 4.5248 7.07667 4.5225 7.3275C4.51128 7.38445 4.50376 7.44207 4.5 7.5V7.5C4.5 7.575 4.5 7.6425 4.5 7.7175C4.50479 7.9909 4.52482 8.26383 4.56 8.535C4.56 8.6625 4.6125 8.7825 4.635 8.91C4.67095 9.12739 4.71852 9.3427 4.7775 9.555C4.815 9.6825 4.8675 9.81 4.9125 9.945C4.9575 10.08 5.0475 10.3275 5.13 10.515L5.31 10.89C5.40104 11.07 5.50117 11.2452 5.61 11.415C5.6775 11.535 5.7525 11.6475 5.8275 11.76C5.9025 11.8725 6.075 12.09 6.2025 12.2475C6.33 12.405 6.3675 12.45 6.4575 12.5475C6.5475 12.645 6.7725 12.87 6.9375 13.02L7.1775 13.245L7.2225 13.29C7.76656 13.7179 8.20839 14.2617 8.51587 14.8819C8.82335 15.502 8.98873 16.1829 9 16.875V18H15V16.875C15.0096 16.1907 15.1706 15.5171 15.4715 14.9024C15.7723 14.2878 16.2055 13.7474 16.74 13.32L16.785 13.275L17.025 13.05C17.19 12.9 17.355 12.7425 17.505 12.5775C17.655 12.4125 17.6775 12.3825 17.76 12.2775C17.8425 12.1725 18.015 11.9625 18.135 11.79C18.255 11.6175 18.285 11.565 18.3525 11.445C18.4613 11.2752 18.5615 11.1 18.6525 10.92L18.8325 10.545C18.915 10.3575 18.9825 10.17 19.0575 9.975C19.1325 9.78 19.1475 9.7125 19.185 9.585C19.244 9.3727 19.2915 9.15739 19.3275 8.94C19.3275 8.8125 19.38 8.6925 19.4025 8.565C19.4502 8.29453 19.4828 8.02161 19.5 7.7475C19.5 7.6725 19.5 7.605 19.5 7.53C19.5037 7.47256 19.5037 7.41494 19.5 7.3575C19.4977 7.10667 19.4802 6.85621 19.4475 6.6075C19.4475 6.5625 19.4475 6.525 19.4475 6.48C19.4475 6.3 19.3875 6.1275 19.35 5.955C19.2349 5.45444 19.069 4.96693 18.855 4.5L18.7875 4.35L18.54 3.87C18.5044 3.80237 18.4643 3.73722 18.42 3.675C18.3375 3.54 18.255 3.405 18.165 3.2775L17.895 2.9175C17.805 2.805 17.7225 2.6925 17.625 2.5875C17.5275 2.4825 17.4375 2.385 17.34 2.2875L17.16 2.1075L16.845 1.8225L16.65 1.665C16.5375 1.575 16.425 1.485 16.3125 1.41L16.065 1.245C15.9075 1.1475 15.7425 1.0425 15.5775 0.9525L15.165 0.75L14.925 0.63L14.4675 0.45L14.25 0.3825C14.065 0.3225 13.875 0.27 13.68 0.225H13.5675C13.335 0.15 13.095 0.105 12.855 0.075H12.405L12 0V0.1125Z" fill="white"/>
<path d="M13.5 11.97H10.5L9 10.47H15L13.5 11.97Z" fill="white"/>
<path d="M15 19.47H9V20.97H15V19.47Z" fill="white"/>
</svg>
