<svg width="24" height="24" viewBox="0 0 24 24" fill="none" xmlns="http://www.w3.org/2000/svg">
<g clip-path="url(#clip0_15402_59981)">
<path d="M22.25 12C22.25 17.6609 17.6609 22.25 12 22.25C6.33908 22.25 1.75 17.6609 1.75 12C1.75 6.33908 6.33908 1.75 12 1.75C17.6609 1.75 22.25 6.33908 22.25 12Z" stroke="white" stroke-width="2" stroke-miterlimit="10"/>
<path d="M11.3704 14.759H12.7024V13.985C12.7024 12.887 13.4764 12.131 14.2864 11.357C15.1504 10.529 16.0504 9.68302 16.0504 8.35102C16.0504 6.83902 15.0784 5.36302 12.6304 5.36302C10.4344 5.36302 8.94044 6.83902 8.81444 8.94502H10.2184C10.3444 7.52302 11.2624 6.60502 12.6124 6.60502C13.9444 6.60502 14.5384 7.34302 14.5384 8.40502C14.5384 9.26902 13.9264 9.91702 13.2244 10.619C12.3244 11.501 11.3704 12.401 11.3704 13.859V14.759ZM12.0004 18.485C12.6304 18.485 13.1524 17.981 13.1524 17.333C13.1524 16.685 12.6304 16.181 12.0004 16.181C11.3704 16.181 10.8484 16.685 10.8484 17.333C10.8484 17.981 11.3704 18.485 12.0004 18.485Z" fill="white"/>
<path d="M11.3704 14.759H11.2204V14.909H11.3704V14.759ZM12.7024 14.759V14.909H12.8524V14.759H12.7024ZM14.2864 11.357L14.3901 11.4655L14.3902 11.4653L14.2864 11.357ZM8.81444 8.94502L8.66471 8.93606L8.65519 9.09502H8.81444V8.94502ZM10.2184 8.94502V9.09502H10.3557L10.3679 8.95826L10.2184 8.94502ZM13.2244 10.619L13.3294 10.7262L13.3305 10.7251L13.2244 10.619ZM11.3704 14.909H12.7024V14.609H11.3704V14.909ZM12.8524 14.759V13.985H12.5524V14.759H12.8524ZM12.8524 13.985C12.8524 12.9616 13.5701 12.249 14.3901 11.4655L14.1828 11.2486C13.3828 12.013 12.5524 12.8125 12.5524 13.985H12.8524ZM14.3902 11.4653C15.2448 10.6463 16.2004 9.75714 16.2004 8.35102H15.9004C15.9004 9.60889 15.056 10.4117 14.1827 11.2487L14.3902 11.4653ZM16.2004 8.35102C16.2004 7.56366 15.9471 6.77611 15.3654 6.18482C14.7823 5.5922 13.8854 5.21302 12.6304 5.21302V5.51302C13.8234 5.51302 14.6366 5.87184 15.1515 6.39522C15.6678 6.91993 15.9004 7.62638 15.9004 8.35102H16.2004ZM12.6304 5.21302C11.4978 5.21302 10.537 5.5943 9.84273 6.25566C9.1487 6.91675 8.72973 7.84925 8.66471 8.93606L8.96417 8.95398C9.02515 7.93479 9.41618 7.07629 10.0496 6.47288C10.6828 5.86974 11.5671 5.51302 12.6304 5.51302V5.21302ZM8.81444 9.09502H10.2184V8.79502H8.81444V9.09502ZM10.3679 8.95826C10.4283 8.27627 10.6773 7.72675 11.0616 7.3487C11.445 6.97158 11.973 6.75502 12.6124 6.75502V6.45502C11.9018 6.45502 11.2959 6.69746 10.8512 7.13483C10.4076 7.57128 10.1346 8.19177 10.069 8.93178L10.3679 8.95826ZM12.6124 6.75502C13.2512 6.75502 13.6895 6.93148 13.9685 7.21246C14.2479 7.49384 14.3884 7.90113 14.3884 8.40502H14.6884C14.6884 7.84691 14.532 7.3542 14.1814 7.00108C13.8304 6.64756 13.3057 6.45502 12.6124 6.45502V6.75502ZM14.3884 8.40502C14.3884 9.19669 13.8299 9.80139 13.1184 10.513L13.3305 10.7251C14.0229 10.0327 14.6884 9.34135 14.6884 8.40502H14.3884ZM13.1194 10.5119C12.2284 11.3851 11.2204 12.3281 11.2204 13.859H11.5204C11.5204 12.4739 12.4205 11.6169 13.3294 10.7262L13.1194 10.5119ZM11.2204 13.859V14.759H11.5204V13.859H11.2204ZM12.0004 18.635C12.7117 18.635 13.3024 18.0654 13.3024 17.333H13.0024C13.0024 17.8967 12.5491 18.335 12.0004 18.335V18.635ZM13.3024 17.333C13.3024 16.6007 12.7117 16.031 12.0004 16.031V16.331C12.5491 16.331 13.0024 16.7694 13.0024 17.333H13.3024ZM12.0004 16.031C11.2891 16.031 10.6984 16.6007 10.6984 17.333H10.9984C10.9984 16.7694 11.4517 16.331 12.0004 16.331V16.031ZM10.6984 17.333C10.6984 18.0654 11.2891 18.635 12.0004 18.635V18.335C11.4517 18.335 10.9984 17.8967 10.9984 17.333H10.6984Z" fill="white"/>
</g>
<defs>
<clipPath id="clip0_15402_59981">
<rect width="24" height="24" fill="white"/>
</clipPath>
</defs>
</svg>
