<svg width="24" height="24" viewBox="0 0 24 24" fill="none" xmlns="http://www.w3.org/2000/svg">
<g clip-path="url(#clip0_12605_50301)">
<path d="M12 5.99998C14.6936 5.97943 17.2908 7.00155 19.2479 8.85242C21.205 10.7033 22.3703 13.2394 22.5 15.93L19.98 15.0825L19.755 15.0075H4.2525L4.0275 15.0825L1.5 15.93C1.626 13.2381 2.79021 10.6998 4.74813 8.8482C6.70604 6.99657 9.30531 5.97569 12 5.99998ZM12 4.49998C10.4367 4.48613 8.88592 4.78061 7.43648 5.36657C5.98703 5.95252 4.66732 6.81846 3.55281 7.91486C2.4383 9.01126 1.55085 10.3166 0.94123 11.7563C0.331609 13.1959 0.0117677 14.7416 0 16.305H0V18L4.5 16.5H19.5L24 18V16.305C23.9723 13.1488 22.6929 10.1328 20.4428 7.91929C18.1928 5.70583 15.1562 4.47601 12 4.49998Z" fill="white"/>
<path d="M12 12C11.7033 12 11.4133 12.088 11.1666 12.2528C10.92 12.4176 10.7277 12.6519 10.6142 12.926C10.5006 13.2001 10.4709 13.5017 10.5288 13.7926C10.5867 14.0836 10.7296 14.3509 10.9393 14.5607C11.1491 14.7704 11.4164 14.9133 11.7074 14.9712C11.9983 15.0291 12.2999 14.9994 12.574 14.8858C12.8481 14.7723 13.0824 14.58 13.2472 14.3334C13.412 14.0867 13.5 13.7967 13.5 13.5C13.5 13.1022 13.342 12.7206 13.0607 12.4393C12.7794 12.158 12.3978 12 12 12Z" fill="white"/>
<path d="M13.7022 8.23511L11.0547 13.8001L12.4122 14.4451L15.0522 8.88011L13.7022 8.23511Z" fill="white"/>
<path d="M12.75 4.50757H11.25V7.50757H12.75V4.50757Z" fill="#7823DC"/>
<path d="M3.57812 8.23486L2.82812 9.53236L5.42313 11.0324L6.17312 9.73486L3.57812 8.23486Z" fill="#7823DC"/>
<path d="M20.4231 8.23486L17.8281 9.73486L18.5781 11.0324L21.1731 9.53236L20.4231 8.23486Z" fill="#7823DC"/>
<path d="M19.5006 18H4.50063L3.01562 19.5H21.0006L19.5006 18Z" fill="#7823DC"/>
</g>
<defs>
<clipPath id="clip0_12605_50301">
<rect width="24" height="24" fill="white"/>
</clipPath>
</defs>
</svg>
