<svg width="461" height="30" viewBox="0 0 461 30" fill="none" xmlns="http://www.w3.org/2000/svg">
<rect opacity="0.7" x="180" y="2" width="50" height="8" fill="#04BB46"/>
<rect opacity="0.7" x="90" y="2" width="90" height="8" fill="#FFC107"/>
<path opacity="0.7" d="M0 6C0 3.79086 1.79086 2 4 2H90V10H4C1.79086 10 0 8.20914 0 6Z" fill="#FF3429"/>
<path opacity="0.7" d="M371 2H457C459.209 2 461 3.79086 461 6C461 8.20914 459.209 10 457 10H371V2Z" fill="#FF3429"/>
<rect opacity="0.7" x="230" y="2" width="50" height="8" fill="#04BB46"/>
<rect opacity="0.7" x="280" y="2" width="91" height="8" fill="#FFC107"/>
<path d="M230.285 0V12" stroke="black"/>
<path d="M243.934 28.117C246.222 28.117 247.535 26.297 247.535 23.593V23.073C247.535 20.421 246.196 18.588 243.908 18.588C241.633 18.588 240.242 20.356 240.242 23.099V23.619C240.242 26.323 241.711 28.117 243.934 28.117ZM243.934 27.181C242.387 27.181 241.399 25.959 241.399 23.606V23.086C241.399 20.798 242.335 19.498 243.908 19.498C245.481 19.498 246.391 20.902 246.391 23.06V23.58C246.391 25.933 245.559 27.181 243.934 27.181ZM252.531 24.932H255.313V23.918H252.531V24.932ZM263.186 28.117C264.954 28.117 266.371 26.921 266.371 24.958C266.371 23.06 265.149 21.877 263.485 21.877C262.601 21.877 261.964 22.163 261.587 22.514V19.68H265.877V18.705H260.651V23.684H261.067C261.561 23.125 262.185 22.787 263.264 22.787C264.447 22.787 265.214 23.645 265.214 24.958C265.214 26.362 264.434 27.207 263.173 27.207C261.756 27.207 261.353 26.505 261.171 25.491H260.092C260.222 27.012 261.184 28.117 263.186 28.117Z" fill="black"/>
<path d="M107.004 29.924H108.083C106.913 28.468 105.977 26.622 105.977 23.944C105.977 21.266 106.913 19.407 108.083 17.951H107.004C105.808 19.355 104.846 21.357 104.846 23.944C104.846 26.531 105.808 28.52 107.004 29.924ZM109.127 24.932H111.909V23.918H109.127V24.932ZM112.745 28H118.972V27.077H114.487L117.048 24.581C118.192 23.463 118.92 22.345 118.92 21.201C118.92 19.602 117.828 18.588 116.112 18.588C114.344 18.588 113.239 19.745 113.096 21.565H114.149C114.331 20.109 115.033 19.498 116.112 19.498C117.165 19.498 117.776 20.122 117.776 21.162C117.776 22.111 117.282 22.956 116.437 23.853L112.745 27.74V28ZM124.105 28.117C126.393 28.117 127.706 26.297 127.706 23.593V23.073C127.706 20.421 126.367 18.588 124.079 18.588C121.804 18.588 120.413 20.356 120.413 23.099V23.619C120.413 26.323 121.882 28.117 124.105 28.117ZM124.105 27.181C122.558 27.181 121.57 25.959 121.57 23.606V23.086C121.57 20.798 122.506 19.498 124.079 19.498C125.652 19.498 126.562 20.902 126.562 23.06V23.58C126.562 25.933 125.73 27.181 124.105 27.181ZM128.741 29.885H129.82C131.016 28.481 131.978 26.479 131.978 23.892C131.978 21.305 131.016 19.316 129.82 17.912H128.741C129.911 19.368 130.847 21.214 130.847 23.892C130.847 26.57 129.911 28.429 128.741 29.885ZM136.891 24.932H139.673V23.918H136.891V24.932ZM146.741 29.924H147.82C146.65 28.468 145.714 26.622 145.714 23.944C145.714 21.266 146.65 19.407 147.82 17.951H146.741C145.545 19.355 144.583 21.357 144.583 23.944C144.583 26.531 145.545 28.52 146.741 29.924ZM148.863 24.932H151.645V23.918H148.863V24.932ZM156.546 28.117C158.509 28.117 159.757 26.869 159.757 25.01C159.757 23.307 158.561 21.968 156.715 21.968C155.636 21.968 154.765 22.475 154.323 23.229C154.375 20.772 155.363 19.511 156.767 19.511C157.807 19.511 158.275 19.979 158.483 20.837H159.562C159.315 19.342 158.288 18.588 156.845 18.588C154.713 18.588 153.205 20.33 153.205 23.671V23.892C153.205 26.219 154.011 28.117 156.546 28.117ZM156.546 27.233C155.298 27.233 154.401 26.427 154.401 24.906C154.401 23.697 155.285 22.852 156.533 22.852C157.794 22.852 158.6 23.723 158.6 25.062C158.6 26.375 157.768 27.233 156.546 27.233ZM160.734 29.885H161.813C163.009 28.481 163.971 26.479 163.971 23.892C163.971 21.305 163.009 19.316 161.813 17.912H160.734C161.904 19.368 162.84 21.214 162.84 23.892C162.84 26.57 161.904 28.429 160.734 29.885Z" fill="black"/>
<path d="M30.6122 26.765V25.725L27.1932 23.814L30.6122 21.903V20.863L25.6202 23.684V23.944L30.6122 26.765ZM37.7694 29.924H38.8484C37.6784 28.468 36.7424 26.622 36.7424 23.944C36.7424 21.266 37.6784 19.407 38.8484 17.951H37.7694C36.5734 19.355 35.6114 21.357 35.6114 23.944C35.6114 26.531 36.5734 28.52 37.7694 29.924ZM39.8918 24.932H42.6738V23.918H39.8918V24.932ZM43.5102 28H49.7372V27.077H45.2522L47.8132 24.581C48.9572 23.463 49.6852 22.345 49.6852 21.201C49.6852 19.602 48.5932 18.588 46.8772 18.588C45.1092 18.588 44.0042 19.745 43.8612 21.565H44.9142C45.0962 20.109 45.7982 19.498 46.8772 19.498C47.9302 19.498 48.5412 20.122 48.5412 21.162C48.5412 22.111 48.0472 22.956 47.2022 23.853L43.5102 27.74V28ZM54.8699 28.117C57.1579 28.117 58.4709 26.297 58.4709 23.593V23.073C58.4709 20.421 57.1319 18.588 54.8439 18.588C52.5689 18.588 51.1779 20.356 51.1779 23.099V23.619C51.1779 26.323 52.6469 28.117 54.8699 28.117ZM54.8699 27.181C53.3229 27.181 52.3349 25.959 52.3349 23.606V23.086C52.3349 20.798 53.2709 19.498 54.8439 19.498C56.4169 19.498 57.3269 20.902 57.3269 23.06V23.58C57.3269 25.933 56.4949 27.181 54.8699 27.181ZM59.5066 29.885H60.5856C61.7816 28.481 62.7436 26.479 62.7436 23.892C62.7436 21.305 61.7816 19.316 60.5856 17.912H59.5066C60.6766 19.368 61.6126 21.214 61.6126 23.892C61.6126 26.57 60.6766 28.429 59.5066 29.885Z" fill="black"/>
<path d="M312.001 28.117C313.964 28.117 315.212 26.869 315.212 25.01C315.212 23.307 314.016 21.968 312.17 21.968C311.091 21.968 310.22 22.475 309.778 23.229C309.83 20.772 310.818 19.511 312.222 19.511C313.262 19.511 313.73 19.979 313.938 20.837H315.017C314.77 19.342 313.743 18.588 312.3 18.588C310.168 18.588 308.66 20.33 308.66 23.671V23.892C308.66 26.219 309.466 28.117 312.001 28.117ZM312.001 27.233C310.753 27.233 309.856 26.427 309.856 24.906C309.856 23.697 310.74 22.852 311.988 22.852C313.249 22.852 314.055 23.723 314.055 25.062C314.055 26.375 313.223 27.233 312.001 27.233ZM320.15 24.932H322.932V23.918H320.15V24.932ZM327.399 28H333.626V27.077H329.141L331.702 24.581C332.846 23.463 333.574 22.345 333.574 21.201C333.574 19.602 332.482 18.588 330.766 18.588C328.998 18.588 327.893 19.745 327.75 21.565H328.803C328.985 20.109 329.687 19.498 330.766 19.498C331.819 19.498 332.43 20.122 332.43 21.162C332.43 22.111 331.936 22.956 331.091 23.853L327.399 27.74V28ZM338.759 28.117C341.047 28.117 342.36 26.297 342.36 23.593V23.073C342.36 20.421 341.021 18.588 338.733 18.588C336.458 18.588 335.067 20.356 335.067 23.099V23.619C335.067 26.323 336.536 28.117 338.759 28.117ZM338.759 27.181C337.212 27.181 336.224 25.959 336.224 23.606V23.086C336.224 20.798 337.16 19.498 338.733 19.498C340.306 19.498 341.216 20.902 341.216 23.06V23.58C341.216 25.933 340.384 27.181 338.759 27.181Z" fill="black"/>
<path d="M188.285 29.924H189.364C188.194 28.468 187.258 26.622 187.258 23.944C187.258 21.266 188.194 19.407 189.364 17.951H188.285C187.089 19.355 186.127 21.357 186.127 23.944C186.127 26.531 187.089 28.52 188.285 29.924ZM190.407 24.932H193.189V23.918H190.407V24.932ZM197.622 28.117C199.39 28.117 200.807 26.921 200.807 24.958C200.807 23.06 199.585 21.877 197.921 21.877C197.037 21.877 196.4 22.163 196.023 22.514V19.68H200.313V18.705H195.087V23.684H195.503C195.997 23.125 196.621 22.787 197.7 22.787C198.883 22.787 199.65 23.645 199.65 24.958C199.65 26.362 198.87 27.207 197.609 27.207C196.192 27.207 195.789 26.505 195.607 25.491H194.528C194.658 27.012 195.62 28.117 197.622 28.117ZM201.859 29.885H202.938C204.134 28.481 205.096 26.479 205.096 23.892C205.096 21.305 204.134 19.316 202.938 17.912H201.859C203.029 19.368 203.965 21.214 203.965 23.892C203.965 26.57 203.029 28.429 201.859 29.885ZM210.009 24.932H212.791V23.918H210.009V24.932ZM221.483 28.117C223.771 28.117 225.084 26.297 225.084 23.593V23.073C225.084 20.421 223.745 18.588 221.457 18.588C219.182 18.588 217.791 20.356 217.791 23.099V23.619C217.791 26.323 219.26 28.117 221.483 28.117ZM221.483 27.181C219.936 27.181 218.948 25.959 218.948 23.606V23.086C218.948 20.798 219.884 19.498 221.457 19.498C223.03 19.498 223.94 20.902 223.94 23.06V23.58C223.94 25.933 223.108 27.181 221.483 27.181Z" fill="black"/>
<path d="M404.041 28H410.268V27.077H405.783L408.344 24.581C409.488 23.463 410.216 22.345 410.216 21.201C410.216 19.602 409.124 18.588 407.408 18.588C405.64 18.588 404.535 19.745 404.392 21.565H405.445C405.627 20.109 406.329 19.498 407.408 19.498C408.461 19.498 409.072 20.122 409.072 21.162C409.072 22.111 408.578 22.956 407.733 23.853L404.041 27.74V28ZM415.401 28.117C417.689 28.117 419.002 26.297 419.002 23.593V23.073C419.002 20.421 417.663 18.588 415.375 18.588C413.1 18.588 411.709 20.356 411.709 23.099V23.619C411.709 26.323 413.178 28.117 415.401 28.117ZM415.401 27.181C413.854 27.181 412.866 25.959 412.866 23.606V23.086C412.866 20.798 413.802 19.498 415.375 19.498C416.948 19.498 417.858 20.902 417.858 23.06V23.58C417.858 25.933 417.026 27.181 415.401 27.181ZM428.899 26.765V25.725L425.48 23.814L428.899 21.903V20.863L423.907 23.684V23.944L428.899 26.765Z" fill="black"/>
</svg>
