<svg width="24" height="24" viewBox="0 0 24 24" fill="none" xmlns="http://www.w3.org/2000/svg">
<g clip-path="url(#clip0_11154_44940)">
<path d="M12.008 8.946C12.568 8.946 13.016 8.526 13.016 7.98C13.016 7.42 12.568 7 12.008 7C11.448 7 11 7.42 11 7.98C11 8.526 11.448 8.946 12.008 8.946ZM11.182 17.472H12.876V10.15H11.182V17.472Z" fill="#7823DC" stroke="#7823DC" stroke-width="0.3" stroke-miterlimit="10"/>
<path d="M22.25 12C22.25 17.6609 17.6609 22.25 12 22.25C6.33908 22.25 1.75 17.6609 1.75 12C1.75 6.33908 6.33908 1.75 12 1.75C17.6609 1.75 22.25 6.33908 22.25 12Z" stroke="#7823DC" stroke-width="2" stroke-miterlimit="10"/>
</g>
<defs>
<clipPath id="clip0_11154_44940">
<rect width="24" height="24" fill="white"/>
</clipPath>
</defs>
</svg>
