<svg width="24" height="24" viewBox="0 0 24 24" fill="none" xmlns="http://www.w3.org/2000/svg">
<g clip-path="url(#clip0_15396_8625)">
<path d="M3.00219 16.4102C3.28848 16.4102 3.56834 16.4951 3.80638 16.6541C4.04442 16.8132 4.22995 17.0392 4.3395 17.3037C4.44906 17.5682 4.47773 17.8593 4.42188 18.14C4.36602 18.4208 4.22816 18.6788 4.02573 18.8812C3.82329 19.0836 3.56537 19.2215 3.28458 19.2773C3.00379 19.3332 2.71275 19.3045 2.44825 19.195C2.18376 19.0854 1.95769 18.8999 1.79864 18.6618C1.63958 18.4238 1.55469 18.1439 1.55469 17.8577C1.55369 17.6673 1.59046 17.4786 1.66285 17.3025C1.73524 17.1265 1.84182 16.9665 1.97644 16.8319C2.11105 16.6973 2.27101 16.5907 2.44708 16.5183C2.62315 16.4459 2.81182 16.4092 3.00219 16.4102ZM3.00219 14.9102C2.41923 14.9102 1.84936 15.083 1.36465 15.4069C0.879932 15.7308 0.502143 16.1911 0.279054 16.7297C0.0559646 17.2683 -0.00240574 17.8609 0.111324 18.4327C0.225054 19.0044 0.505776 19.5296 0.917992 19.9419C1.33021 20.3541 1.8554 20.6348 2.42716 20.7485C2.99892 20.8623 3.59156 20.8039 4.13015 20.5808C4.66873 20.3577 5.12907 19.9799 5.45295 19.4952C5.77682 19.0105 5.94969 18.4406 5.94969 17.8577C5.94969 17.0759 5.63915 16.3262 5.08639 15.7735C4.53362 15.2207 3.78391 14.9102 3.00219 14.9102Z" fill="white"/>
<path d="M7.50219 6.68994C7.78848 6.68994 8.06834 6.77484 8.30638 6.93389C8.54442 7.09294 8.72995 7.31901 8.8395 7.58351C8.94906 7.848 8.97773 8.13905 8.92188 8.41983C8.86602 8.70062 8.72816 8.95854 8.52573 9.16098C8.32329 9.36342 8.06537 9.50128 7.78458 9.55713C7.50379 9.61298 7.21275 9.58431 6.94825 9.47476C6.68376 9.3652 6.45769 9.17967 6.29864 8.94163C6.13958 8.70359 6.05469 8.42373 6.05469 8.13744C6.05469 7.75354 6.20719 7.38536 6.47865 7.1139C6.75011 6.84245 7.11829 6.68994 7.50219 6.68994ZM7.50219 5.18994C6.91923 5.18994 6.34936 5.36281 5.86465 5.68668C5.37993 6.01056 5.00214 6.4709 4.77905 7.00948C4.55596 7.54807 4.49759 8.14071 4.61132 8.71247C4.72505 9.28423 5.00578 9.80942 5.41799 10.2216C5.83021 10.6339 6.3554 10.9146 6.92716 11.0283C7.49892 11.142 8.09156 11.0837 8.63015 10.8606C9.16873 10.6375 9.62907 10.2597 9.95295 9.77498C10.2768 9.29027 10.4497 8.7204 10.4497 8.13744C10.4497 7.35572 10.1391 6.60601 9.58639 6.05324C9.03362 5.50048 8.28391 5.18994 7.50219 5.18994Z" fill="white"/>
<path d="M15.0486 19.5C15.3326 19.5002 15.6103 19.5839 15.8471 19.7408C16.0838 19.8976 16.2692 20.1207 16.3802 20.3821C16.4911 20.6436 16.5227 20.9319 16.4709 21.2111C16.4192 21.4904 16.2865 21.7483 16.0892 21.9526C15.892 22.157 15.639 22.2989 15.3618 22.3605C15.0846 22.4221 14.7953 22.4009 14.5301 22.2993C14.2648 22.1978 14.0353 22.0204 13.8702 21.7894C13.705 21.5583 13.6114 21.2838 13.6011 21C13.593 20.8053 13.6245 20.6109 13.6937 20.4287C13.7628 20.2465 13.8683 20.0803 14.0036 19.94C14.139 19.7998 14.3014 19.6885 14.481 19.6128C14.6606 19.5372 14.8537 19.4988 15.0486 19.5ZM15.0486 18C14.4679 18.0001 13.9002 18.1717 13.4166 18.4933C12.9331 18.8149 12.5554 19.2722 12.3308 19.8077C12.1063 20.3433 12.0449 20.9332 12.1545 21.5035C12.264 22.0738 12.5396 22.599 12.9466 23.0132C13.3535 23.4274 13.8738 23.7122 14.4421 23.8318C15.0103 23.9514 15.6012 23.9005 16.1407 23.6854C16.6801 23.4704 17.1439 23.1008 17.474 22.623C17.8041 22.1452 17.9858 21.5806 17.9961 21C18.0021 20.6088 17.9303 20.2203 17.7849 19.8571C17.6395 19.4938 17.4235 19.1631 17.1493 18.884C16.8751 18.6049 16.5482 18.3831 16.1876 18.2313C15.827 18.0796 15.4398 18.0009 15.0486 18Z" fill="white"/>
<path d="M21.0021 1.5752C21.2893 1.57523 21.5701 1.66072 21.8086 1.82079C22.0471 1.98086 22.2326 2.20827 22.3414 2.47408C22.4503 2.73989 22.4776 3.03208 22.4199 3.31347C22.3622 3.59485 22.2221 3.85271 22.0174 4.05422C21.8127 4.25573 21.5527 4.39179 21.2705 4.44507C20.9882 4.49836 20.6965 4.46646 20.4324 4.35345C20.1683 4.24043 19.9439 4.0514 19.7875 3.81042C19.6312 3.56944 19.5501 3.2874 19.5546 3.0002C19.5605 2.62021 19.7156 2.25778 19.9864 1.99117C20.2573 1.72456 20.6221 1.57515 21.0021 1.5752ZM21.0021 0.0751953C20.4182 0.0752123 19.8474 0.248663 19.3622 0.573544C18.8771 0.898425 18.4993 1.3601 18.2769 1.89999C18.0545 2.43989 17.9974 3.03369 18.113 3.60605C18.2286 4.17841 18.5115 4.70356 18.926 5.11486C19.3405 5.52617 19.8678 5.8051 20.441 5.91628C21.0142 6.02745 21.6076 5.96586 22.1457 5.73932C22.6839 5.51278 23.1427 5.13149 23.4638 4.64382C23.785 4.15616 23.9541 3.58409 23.9496 3.0002C23.9417 2.22299 23.6279 1.48018 23.0762 0.932695C22.5245 0.385208 21.7793 0.077128 21.0021 0.0751953Z" fill="white"/>
<path d="M19.6594 4.56379L15.4062 19.2607L16.8471 19.6777L21.1003 4.98077L19.6594 4.56379Z" fill="white"/>
<path d="M9.32062 9.95117L8.01562 10.7012L13.2656 19.8362L14.5706 19.0862L9.32062 9.95117Z" fill="white"/>
<path d="M6.20656 9.49085L3.00781 15.0312L4.30685 15.7812L7.5056 10.2409L6.20656 9.49085Z" fill="white"/>
</g>
<defs>
<clipPath id="clip0_15396_8625">
<rect width="24" height="24" fill="white"/>
</clipPath>
</defs>
</svg>
