<svg width="167" height="44" viewBox="0 0 167 44" fill="none" xmlns="http://www.w3.org/2000/svg">
<g clip-path="url(#clip0_17829_11980)">
<path d="M59.3681 0.604492H54.8281L46.7031 22.1901H49.3481L51.4981 16.4052H62.6031L64.7631 22.1901H67.4981L59.3681 0.604492ZM52.4481 13.8365L56.3881 3.3027H57.7281L61.6481 13.8311L52.4481 13.8365Z" fill="#1E1E1E"/>
<path d="M158.232 13.2159V22.1901H155.628V13.1835L146.812 0.604492H149.932L156.908 10.5986L163.973 0.604492H167.003L158.232 13.2159Z" fill="#1E1E1E"/>
<path d="M41.2147 22.1901H24.8047V0.604492H41.2147V3.1462H27.2647V10.1184H39.5547V12.6763H27.2647V19.6484H41.2147V22.1901Z" fill="#1E1E1E"/>
<path d="M141.728 22.1901H125.312V0.604492H141.728V3.1462H127.772V10.1184H140.062V12.6763H127.772V19.6484H141.728V22.1901Z" fill="#1E1E1E"/>
<path d="M116.547 22.1901H114.307L101.002 5.46126V22.1901H98.4766V0.604492H100.717L114.002 17.3334V0.604492H116.527L116.547 22.1901Z" fill="#1E1E1E"/>
<path d="M18.115 0.604492H14.69L5.97 10.0482H2.525V0.604492H0V22.1901H2.525V12.7464H5.96L14.69 22.1901H18.115L8.305 11.3973L18.115 0.604492Z" fill="#1E1E1E"/>
<path d="M91.6031 22.1901L84.9331 12.6331C85.4129 12.6117 85.8899 12.5431 86.3581 12.428C88.8131 11.5916 90.4081 9.55714 90.4081 6.63229C90.4081 2.7037 87.9081 0.604492 83.4081 0.604492H73.5781V22.1901H76.0781V12.6763H81.8281L88.5031 22.1901H91.6031ZM76.1031 3.1462H83.3581C86.2581 3.1462 87.8031 4.33881 87.8031 6.63229C87.8031 8.92576 86.3031 10.1184 83.3581 10.1184H76.0931L76.1031 3.1462Z" fill="#1E1E1E"/>
<path d="M3.815 40.7395C5.945 40.7395 7.52 39.3745 7.52 37.5745C7.52 35.5495 6.26 34.8295 3.875 34.4545C1.685 34.1245 1.295 33.5845 1.295 32.5345C1.295 31.5295 2.06 30.7945 3.53 30.7945C5.015 30.7945 5.795 31.3495 6.05 32.6995H7.22C7.01 30.7945 5.675 29.7445 3.53 29.7445C1.505 29.7445 0.0800001 31.0045 0.0800001 32.6545C0.0800001 34.5595 1.415 35.2645 3.665 35.6095C5.705 35.9395 6.26 36.4495 6.26 37.6645C6.26 38.8795 5.195 39.6895 3.815 39.6895C1.655 39.6895 1.145 38.6095 0.98 37.3345H-0.28C-0.0849999 39.1645 0.95 40.7395 3.815 40.7395ZM15.8743 40.7395C17.6443 40.7395 18.9493 39.9145 19.2193 38.3395H17.9743C17.8093 39.2545 17.1043 39.7045 15.8893 39.7045C14.2843 39.7045 13.4293 38.7145 13.3693 36.9295H19.2793V36.5245C19.2793 33.7195 17.5693 32.6245 15.7543 32.6245C13.5943 32.6245 12.0793 34.2745 12.0793 36.6445V36.7645C12.0793 39.1795 13.6543 40.7395 15.8743 40.7395ZM13.4143 35.9245C13.6243 34.5295 14.4793 33.6595 15.7543 33.6595C17.0443 33.6595 17.8843 34.3045 18.0043 35.9245H13.4143ZM24.1897 40.6045H25.4347V35.8495C25.4347 34.4395 26.4697 33.7045 27.6247 33.7045C28.8847 33.7045 29.4697 34.3195 29.4697 35.6995V40.6045H30.7147V35.7895C30.7147 33.5095 29.5747 32.6245 27.9547 32.6245C26.6647 32.6245 25.7947 33.2695 25.4347 34.0045V32.7595H24.1897V40.6045ZM38.5845 40.7395C40.4895 40.7395 41.4645 39.7795 41.4645 38.3545C41.4645 36.6895 40.3245 36.3295 38.7045 36.0295C37.2645 35.7745 36.8745 35.4895 36.8745 34.7845C36.8745 34.1095 37.4595 33.6595 38.3595 33.6595C39.3495 33.6595 39.8295 34.0345 40.0095 34.8895H41.2095C40.9995 33.1945 39.7845 32.6245 38.3745 32.6245C37.1445 32.6245 35.7195 33.3745 35.7195 34.8295C35.7195 36.1945 36.4095 36.7645 38.4495 37.1395C39.6645 37.3645 40.2795 37.6345 40.2795 38.4595C40.2795 39.2995 39.7545 39.7045 38.5695 39.7045C37.3095 39.7045 36.8145 39.1195 36.7245 38.1895H35.5095C35.5845 39.7945 36.7095 40.7395 38.5845 40.7395ZM46.9916 31.1245C47.4416 31.1245 47.8166 30.7495 47.8166 30.2995C47.8166 29.8495 47.4416 29.4745 46.9916 29.4745C46.5416 29.4745 46.1666 29.8495 46.1666 30.2995C46.1666 30.7495 46.5416 31.1245 46.9916 31.1245ZM46.3916 40.6045H47.6366V32.7595H46.3916V40.6045ZM53.1848 40.6045H54.4298V35.8495C54.4298 34.4395 55.4648 33.7045 56.6198 33.7045C57.8798 33.7045 58.4648 34.3195 58.4648 35.6995V40.6045H59.7098V35.7895C59.7098 33.5095 58.5698 32.6245 56.9498 32.6245C55.6598 32.6245 54.7898 33.2695 54.4298 34.0045V32.7595H53.1848V40.6045ZM68.2846 43.4695C70.4746 43.4695 72.0196 42.3595 72.0346 40.0795V32.7595H70.7896V34.0195C70.3396 33.2545 69.5296 32.6245 68.2246 32.6245C66.0646 32.6245 64.5646 34.3945 64.5646 36.5245V36.6295C64.5646 38.7895 66.0796 40.3495 68.1346 40.3495C69.2746 40.3495 70.3396 39.6295 70.7896 38.8645V40.0045C70.7896 41.6845 69.8146 42.4195 68.2696 42.4195C66.9346 42.4195 66.1846 41.9545 66.0046 41.0545H64.7296C64.9396 42.3745 65.9596 43.4695 68.2846 43.4695ZM68.2696 39.3145C66.9496 39.3145 65.8546 38.2945 65.8546 36.5845V36.4645C65.8546 34.8145 66.7846 33.6595 68.3446 33.6595C69.8746 33.6595 70.8346 34.6795 70.8346 36.4345V36.5395C70.8346 38.2945 69.7246 39.3145 68.2696 39.3145ZM88.0787 40.7395C90.2087 40.7395 91.7837 39.3745 91.7837 37.5745C91.7837 35.5495 90.5237 34.8295 88.1387 34.4545C85.9487 34.1245 85.5587 33.5845 85.5587 32.5345C85.5587 31.5295 86.3237 30.7945 87.7937 30.7945C89.2787 30.7945 90.0587 31.3495 90.3137 32.6995H91.4837C91.2737 30.7945 89.9387 29.7445 87.7937 29.7445C85.7687 29.7445 84.3437 31.0045 84.3437 32.6545C84.3437 34.5595 85.6787 35.2645 87.9287 35.6095C89.9687 35.9395 90.5237 36.4495 90.5237 37.6645C90.5237 38.8795 89.4587 39.6895 88.0787 39.6895C85.9187 39.6895 85.4087 38.6095 85.2437 37.3345H83.9837C84.1787 39.1645 85.2137 40.7395 88.0787 40.7395ZM100.183 40.7395C102.418 40.7395 104.053 39.1045 104.053 36.7345V36.6145C104.053 34.2595 102.418 32.6245 100.198 32.6245C97.978 32.6245 96.343 34.2745 96.343 36.6295V36.7495C96.343 39.0445 97.948 40.7395 100.183 40.7395ZM100.198 39.7045C98.608 39.7045 97.633 38.5345 97.633 36.7495V36.6295C97.633 34.8295 98.623 33.6595 100.198 33.6595C101.758 33.6595 102.763 34.8295 102.763 36.6445V36.7495C102.763 38.5195 101.773 39.7045 100.198 39.7045ZM109.011 40.6045H110.271V29.0095H109.011V40.6045ZM118.474 40.7395C119.734 40.7395 120.604 40.0945 120.964 39.3595V40.6045H122.209V32.7595H120.964V37.5145C120.964 38.9245 119.914 39.6595 118.804 39.6595C117.574 39.6595 116.989 39.0445 116.989 37.6645V32.7595H115.744V37.7245C115.744 39.8845 116.914 40.7395 118.474 40.7395ZM130.11 40.7095C130.62 40.7095 130.92 40.6345 131.175 40.5445V39.4945C130.905 39.5995 130.605 39.6595 130.215 39.6595C129.585 39.6595 129.24 39.2845 129.24 38.5195V33.8095H131.07V32.7595H129.24V30.9745H127.995V32.7595H126.87V33.8095H127.995V38.6395C127.995 39.8695 128.685 40.7095 130.11 40.7095ZM136.687 31.1245C137.137 31.1245 137.512 30.7495 137.512 30.2995C137.512 29.8495 137.137 29.4745 136.687 29.4745C136.237 29.4745 135.862 29.8495 135.862 30.2995C135.862 30.7495 136.237 31.1245 136.687 31.1245ZM136.087 40.6045H137.332V32.7595H136.087V40.6045ZM146.135 40.7395C148.37 40.7395 150.005 39.1045 150.005 36.7345V36.6145C150.005 34.2595 148.37 32.6245 146.15 32.6245C143.93 32.6245 142.295 34.2745 142.295 36.6295V36.7495C142.295 39.0445 143.9 40.7395 146.135 40.7395ZM146.15 39.7045C144.56 39.7045 143.585 38.5345 143.585 36.7495V36.6295C143.585 34.8295 144.575 33.6595 146.15 33.6595C147.71 33.6595 148.715 34.8295 148.715 36.6445V36.7495C148.715 38.5195 147.725 39.7045 146.15 39.7045ZM154.933 40.6045H156.178V35.8495C156.178 34.4395 157.213 33.7045 158.368 33.7045C159.628 33.7045 160.213 34.3195 160.213 35.6995V40.6045H161.458V35.7895C161.458 33.5095 160.318 32.6245 158.698 32.6245C157.408 32.6245 156.538 33.2695 156.178 34.0045V32.7595H154.933V40.6045Z" fill="black"/>
</g>
<defs>
<clipPath id="clip0_17829_11980">
<rect width="167" height="43.1713" fill="white" transform="translate(0 0.604492)"/>
</clipPath>
</defs>
</svg>
