<svg width="480" height="72" viewBox="0 0 480 72" fill="none" xmlns="http://www.w3.org/2000/svg">
<path d="M120 18H4C1.79086 18 0 19.7909 0 22C0 24.2091 1.79086 26 4 26H120V18Z" fill="#A7A7AA"/>
<rect width="120" height="8" transform="matrix(-1 0 0 1 360 18)" fill="#BF9CEC"/>
<path d="M480 22C480 19.7909 478.209 18 476 18H360V26H476C478.209 26 480 24.2091 480 22Z" fill="#8737E1"/>
<rect width="120" height="8" transform="matrix(-1 0 0 1 240 18)" fill="#C6C6C9"/>
<path d="M6.08 43H7.04V35.776L9.98 43H10.304L13.148 35.776V43H14.192V34.42H12.752L10.184 41.104L7.532 34.42H6.08V43ZM18.8893 43.108C20.6773 43.108 21.9853 41.8 21.9853 39.904V39.808C21.9853 37.924 20.6773 36.616 18.9013 36.616C17.1253 36.616 15.8173 37.936 15.8173 39.82V39.916C15.8173 41.752 17.1013 43.108 18.8893 43.108ZM18.9013 42.28C17.6293 42.28 16.8493 41.344 16.8493 39.916V39.82C16.8493 38.38 17.6413 37.444 18.9013 37.444C20.1493 37.444 20.9533 38.38 20.9533 39.832V39.916C20.9533 41.332 20.1613 42.28 18.9013 42.28ZM25.8915 43.108C26.8035 43.108 27.6795 42.532 28.0395 41.92V43H29.0355V33.724H28.0395V37.732C27.6795 37.12 27.0315 36.616 25.9875 36.616C24.2595 36.616 23.0595 37.972 23.0595 39.892V39.988C23.0595 41.944 24.2475 43.108 25.8915 43.108ZM25.9995 42.28C24.9435 42.28 24.0915 41.524 24.0915 39.94V39.844C24.0915 38.32 24.8355 37.444 26.0835 37.444C27.3075 37.444 28.0755 38.2 28.0755 39.808V39.904C28.0755 41.512 27.1635 42.28 25.9995 42.28ZM33.619 43.108C35.035 43.108 36.079 42.448 36.295 41.188H35.299C35.167 41.92 34.603 42.28 33.631 42.28C32.347 42.28 31.663 41.488 31.615 40.06H36.343V39.736C36.343 37.492 34.975 36.616 33.523 36.616C31.795 36.616 30.583 37.936 30.583 39.832V39.928C30.583 41.86 31.843 43.108 33.619 43.108ZM31.651 39.256C31.819 38.14 32.503 37.444 33.523 37.444C34.555 37.444 35.227 37.96 35.323 39.256H31.651ZM37.8953 43H38.9033V33.724H37.8953V43ZM46.0614 43.108C47.5854 43.108 48.3654 42.34 48.3654 41.2C48.3654 39.868 47.4534 39.58 46.1574 39.34C45.0054 39.136 44.6934 38.908 44.6934 38.344C44.6934 37.804 45.1614 37.444 45.8814 37.444C46.6734 37.444 47.0574 37.744 47.2014 38.428H48.1614C47.9934 37.072 47.0214 36.616 45.8934 36.616C44.9094 36.616 43.7694 37.216 43.7694 38.38C43.7694 39.472 44.3214 39.928 45.9534 40.228C46.9254 40.408 47.4174 40.624 47.4174 41.284C47.4174 41.956 46.9974 42.28 46.0494 42.28C45.0414 42.28 44.6454 41.812 44.5734 41.068H43.6014C43.6614 42.352 44.5614 43.108 46.0614 43.108ZM49.883 43H50.879V39.196C50.879 38.068 51.707 37.48 52.631 37.48C53.639 37.48 54.107 37.972 54.107 39.076V43H55.103V39.148C55.103 37.324 54.191 36.616 52.895 36.616C51.863 36.616 51.167 37.132 50.879 37.72V33.724H49.883V43ZM59.6589 43.108C61.4469 43.108 62.7549 41.8 62.7549 39.904V39.808C62.7549 37.924 61.4469 36.616 59.6709 36.616C57.8949 36.616 56.5869 37.936 56.5869 39.82V39.916C56.5869 41.752 57.8709 43.108 59.6589 43.108ZM59.6709 42.28C58.3989 42.28 57.6189 41.344 57.6189 39.916V39.82C57.6189 38.38 58.4109 37.444 59.6709 37.444C60.9189 37.444 61.7229 38.38 61.7229 39.832V39.916C61.7229 41.332 60.9309 42.28 59.6709 42.28ZM66.4211 43.108C67.4291 43.108 68.1251 42.592 68.4131 42.004V43H69.4091V36.724H68.4131V40.528C68.4131 41.656 67.5731 42.244 66.6851 42.244C65.7011 42.244 65.2331 41.752 65.2331 40.648V36.724H64.2371V40.696C64.2371 42.424 65.1731 43.108 66.4211 43.108ZM71.4461 43H72.4541V33.724H71.4461V43ZM76.8564 43.108C77.7684 43.108 78.6444 42.532 79.0044 41.92V43H80.0004V33.724H79.0044V37.732C78.6444 37.12 77.9964 36.616 76.9524 36.616C75.2244 36.616 74.0244 37.972 74.0244 39.892V39.988C74.0244 41.944 75.2124 43.108 76.8564 43.108ZM76.9644 42.28C75.9084 42.28 75.0564 41.524 75.0564 39.94V39.844C75.0564 38.32 75.8004 37.444 77.0484 37.444C78.2724 37.444 79.0404 38.2 79.0404 39.808V39.904C79.0404 41.512 78.1284 42.28 76.9644 42.28ZM88.3116 43.108C90.0396 43.108 91.1676 41.788 91.1676 39.868V39.772C91.1676 37.816 89.9556 36.616 88.3116 36.616C87.3996 36.616 86.5476 37.168 86.1876 37.78V33.724H85.1916V43H86.1876V41.968C86.5476 42.592 87.2916 43.108 88.3116 43.108ZM88.2156 42.28C86.9916 42.28 86.1516 41.524 86.1516 39.916V39.82C86.1516 38.212 87.0396 37.444 88.2036 37.444C89.2596 37.444 90.1356 38.236 90.1356 39.82V39.916C90.1356 41.44 89.4636 42.28 88.2156 42.28ZM95.283 43.108C96.699 43.108 97.743 42.448 97.959 41.188H96.963C96.831 41.92 96.267 42.28 95.295 42.28C94.011 42.28 93.327 41.488 93.279 40.06H98.007V39.736C98.007 37.492 96.639 36.616 95.187 36.616C93.459 36.616 92.247 37.936 92.247 39.832V39.928C92.247 41.86 93.507 43.108 95.283 43.108ZM93.315 39.256C93.483 38.14 94.167 37.444 95.187 37.444C96.219 37.444 96.891 37.96 96.987 39.256H93.315ZM6.008 55H7.004V51.556C7.004 50.008 7.808 49.612 9.068 49.552V48.616C7.94 48.652 7.4 49.144 7.004 49.852V48.724H6.008V55ZM12.9119 55.108C14.3279 55.108 15.3719 54.448 15.5879 53.188H14.5919C14.4599 53.92 13.8959 54.28 12.9239 54.28C11.6399 54.28 10.9559 53.488 10.9079 52.06H15.6359V51.736C15.6359 49.492 14.2679 48.616 12.8159 48.616C11.0879 48.616 9.87594 49.936 9.87594 51.832V51.928C9.87594 53.86 11.1359 55.108 12.9119 55.108ZM10.9439 51.256C11.1119 50.14 11.7959 49.444 12.8159 49.444C13.8479 49.444 14.5199 49.96 14.6159 51.256H10.9439ZM18.3657 55H19.4577L20.9217 50.296L22.2297 55H23.3337L25.2897 48.724H24.2697L22.7937 53.776L21.3657 48.724H20.5017L18.9777 53.776L17.5137 48.724H16.4337L18.3657 55ZM29.1198 55.108C30.9078 55.108 32.2158 53.8 32.2158 51.904V51.808C32.2158 49.924 30.9078 48.616 29.1318 48.616C27.3558 48.616 26.0478 49.936 26.0478 51.82V51.916C26.0478 53.752 27.3318 55.108 29.1198 55.108ZM29.1318 54.28C27.8598 54.28 27.0798 53.344 27.0798 51.916V51.82C27.0798 50.38 27.8718 49.444 29.1318 49.444C30.3798 49.444 31.1838 50.38 31.1838 51.832V51.916C31.1838 53.332 30.3918 54.28 29.1318 54.28ZM33.758 55H34.754V51.556C34.754 50.008 35.558 49.612 36.818 49.552V48.616C35.69 48.652 35.15 49.144 34.754 49.852V48.724H33.758V55ZM38.2697 55H39.2657V51.748L42.0497 55H43.2617L40.3457 51.64L43.0337 48.724H41.8697L39.2657 51.616V45.724H38.2697V55ZM46.7908 55.108C48.2068 55.108 49.2508 54.448 49.4668 53.188H48.4708C48.3388 53.92 47.7748 54.28 46.8028 54.28C45.5188 54.28 44.8348 53.488 44.7868 52.06H49.5148V51.736C49.5148 49.492 48.1468 48.616 46.6948 48.616C44.9668 48.616 43.7548 49.936 43.7548 51.832V51.928C43.7548 53.86 45.0148 55.108 46.7908 55.108ZM44.8228 51.256C44.9908 50.14 45.6748 49.444 46.6948 49.444C47.7268 49.444 48.3988 49.96 48.4948 51.256H44.8228ZM53.4072 55.108C54.3192 55.108 55.1952 54.532 55.5552 53.92V55H56.5512V45.724H55.5552V49.732C55.1952 49.12 54.5472 48.616 53.5032 48.616C51.7752 48.616 50.5752 49.972 50.5752 51.892V51.988C50.5752 53.944 51.7632 55.108 53.4072 55.108ZM53.5152 54.28C52.4592 54.28 51.6072 53.524 51.6072 51.94V51.844C51.6072 50.32 52.3512 49.444 53.5992 49.444C54.8232 49.444 55.5912 50.2 55.5912 51.808V51.904C55.5912 53.512 54.6792 54.28 53.5152 54.28Z" fill="black"/>
<path d="M9.72 10.19V9.08L7.38 7.77L9.72 6.49V5.37L5.74 7.65V7.91L9.72 10.19ZM16.0112 11.1C17.6312 11.1 18.6512 10.12 18.6512 8.67C18.6512 7.28 17.6712 6.34 16.3012 6.34C15.4512 6.34 14.8612 6.71 14.5312 7.26C14.5712 5.63 15.2012 4.78 16.1612 4.78C16.8512 4.78 17.1312 5.1 17.2612 5.64H18.5012C18.3312 4.39 17.4712 3.75 16.1712 3.75C14.4612 3.75 13.2112 5.1 13.2112 7.58V7.75C13.2112 9.64 13.9312 11.1 16.0112 11.1ZM15.9912 10.12C15.1812 10.12 14.6112 9.57 14.6112 8.62C14.6112 7.83 15.1812 7.26 15.9912 7.26C16.8112 7.26 17.3312 7.84 17.3312 8.7C17.3312 9.55 16.7912 10.12 15.9912 10.12ZM22.5686 11.1C24.4386 11.1 25.5586 9.73 25.5586 7.58V7.22C25.5586 5.07 24.3786 3.75 22.5686 3.75C20.7686 3.75 19.5686 5.08 19.5686 7.25V7.61C19.5686 9.76 20.7486 11.1 22.5686 11.1ZM22.5986 10.04C21.5286 10.04 20.9086 9.22 20.9086 7.6V7.24C20.9086 5.65 21.4986 4.79 22.5786 4.79C23.6486 4.79 24.2286 5.71 24.2286 7.23V7.58C24.2286 9.2 23.6986 10.04 22.5986 10.04ZM28.081 7.25C29.061 7.25 29.821 6.51 29.821 5.5C29.821 4.5 29.051 3.78 28.091 3.78C27.131 3.78 26.341 4.52 26.341 5.52C26.341 6.51 27.101 7.25 28.081 7.25ZM27.321 11H28.171L32.771 3.85H31.931L27.321 11ZM28.091 6.44C27.621 6.44 27.321 6.12 27.321 5.51C27.321 4.91 27.621 4.58 28.091 4.58C28.561 4.58 28.851 4.93 28.851 5.51C28.851 6.1 28.561 6.44 28.091 6.44ZM32.001 11.1C32.981 11.1 33.751 10.36 33.751 9.35C33.751 8.35 32.971 7.63 32.011 7.63C31.051 7.63 30.271 8.37 30.271 9.37C30.271 10.36 31.021 11.1 32.001 11.1ZM32.011 10.29C31.541 10.29 31.241 9.97 31.241 9.36C31.241 8.76 31.541 8.43 32.011 8.43C32.481 8.43 32.771 8.78 32.771 9.36C32.771 9.95 32.481 10.29 32.011 10.29Z" fill="black"/>
<path d="M126.08 43H127.04V35.776L129.98 43H130.304L133.148 35.776V43H134.192V34.42H132.752L130.184 41.104L127.532 34.42H126.08V43ZM138.889 43.108C140.677 43.108 141.985 41.8 141.985 39.904V39.808C141.985 37.924 140.677 36.616 138.901 36.616C137.125 36.616 135.817 37.936 135.817 39.82V39.916C135.817 41.752 137.101 43.108 138.889 43.108ZM138.901 42.28C137.629 42.28 136.849 41.344 136.849 39.916V39.82C136.849 38.38 137.641 37.444 138.901 37.444C140.149 37.444 140.953 38.38 140.953 39.832V39.916C140.953 41.332 140.161 42.28 138.901 42.28ZM145.892 43.108C146.804 43.108 147.68 42.532 148.04 41.92V43H149.036V33.724H148.04V37.732C147.68 37.12 147.032 36.616 145.988 36.616C144.26 36.616 143.06 37.972 143.06 39.892V39.988C143.06 41.944 144.248 43.108 145.892 43.108ZM146 42.28C144.944 42.28 144.092 41.524 144.092 39.94V39.844C144.092 38.32 144.836 37.444 146.084 37.444C147.308 37.444 148.076 38.2 148.076 39.808V39.904C148.076 41.512 147.164 42.28 146 42.28ZM153.619 43.108C155.035 43.108 156.079 42.448 156.295 41.188H155.299C155.167 41.92 154.603 42.28 153.631 42.28C152.347 42.28 151.663 41.488 151.615 40.06H156.343V39.736C156.343 37.492 154.975 36.616 153.523 36.616C151.795 36.616 150.583 37.936 150.583 39.832V39.928C150.583 41.86 151.843 43.108 153.619 43.108ZM151.651 39.256C151.819 38.14 152.503 37.444 153.523 37.444C154.555 37.444 155.227 37.96 155.323 39.256H151.651ZM157.895 43H158.903V33.724H157.895V43ZM166.061 43.108C167.585 43.108 168.365 42.34 168.365 41.2C168.365 39.868 167.453 39.58 166.157 39.34C165.005 39.136 164.693 38.908 164.693 38.344C164.693 37.804 165.161 37.444 165.881 37.444C166.673 37.444 167.057 37.744 167.201 38.428H168.161C167.993 37.072 167.021 36.616 165.893 36.616C164.909 36.616 163.769 37.216 163.769 38.38C163.769 39.472 164.321 39.928 165.953 40.228C166.925 40.408 167.417 40.624 167.417 41.284C167.417 41.956 166.997 42.28 166.049 42.28C165.041 42.28 164.645 41.812 164.573 41.068H163.601C163.661 42.352 164.561 43.108 166.061 43.108ZM169.883 43H170.879V39.196C170.879 38.068 171.707 37.48 172.631 37.48C173.639 37.48 174.107 37.972 174.107 39.076V43H175.103V39.148C175.103 37.324 174.191 36.616 172.895 36.616C171.863 36.616 171.167 37.132 170.879 37.72V33.724H169.883V43ZM179.659 43.108C181.447 43.108 182.755 41.8 182.755 39.904V39.808C182.755 37.924 181.447 36.616 179.671 36.616C177.895 36.616 176.587 37.936 176.587 39.82V39.916C176.587 41.752 177.871 43.108 179.659 43.108ZM179.671 42.28C178.399 42.28 177.619 41.344 177.619 39.916V39.82C177.619 38.38 178.411 37.444 179.671 37.444C180.919 37.444 181.723 38.38 181.723 39.832V39.916C181.723 41.332 180.931 42.28 179.671 42.28ZM186.421 43.108C187.429 43.108 188.125 42.592 188.413 42.004V43H189.409V36.724H188.413V40.528C188.413 41.656 187.573 42.244 186.685 42.244C185.701 42.244 185.233 41.752 185.233 40.648V36.724H184.237V40.696C184.237 42.424 185.173 43.108 186.421 43.108ZM191.446 43H192.454V33.724H191.446V43ZM196.856 43.108C197.768 43.108 198.644 42.532 199.004 41.92V43H200V33.724H199.004V37.732C198.644 37.12 197.996 36.616 196.952 36.616C195.224 36.616 194.024 37.972 194.024 39.892V39.988C194.024 41.944 195.212 43.108 196.856 43.108ZM196.964 42.28C195.908 42.28 195.056 41.524 195.056 39.94V39.844C195.056 38.32 195.8 37.444 197.048 37.444C198.272 37.444 199.04 38.2 199.04 39.808V39.904C199.04 41.512 198.128 42.28 196.964 42.28ZM208.312 43.108C210.04 43.108 211.168 41.788 211.168 39.868V39.772C211.168 37.816 209.956 36.616 208.312 36.616C207.4 36.616 206.548 37.168 206.188 37.78V33.724H205.192V43H206.188V41.968C206.548 42.592 207.292 43.108 208.312 43.108ZM208.216 42.28C206.992 42.28 206.152 41.524 206.152 39.916V39.82C206.152 38.212 207.04 37.444 208.204 37.444C209.26 37.444 210.136 38.236 210.136 39.82V39.916C210.136 41.44 209.464 42.28 208.216 42.28ZM215.283 43.108C216.699 43.108 217.743 42.448 217.959 41.188H216.963C216.831 41.92 216.267 42.28 215.295 42.28C214.011 42.28 213.327 41.488 213.279 40.06H218.007V39.736C218.007 37.492 216.639 36.616 215.187 36.616C213.459 36.616 212.247 37.936 212.247 39.832V39.928C212.247 41.86 213.507 43.108 215.283 43.108ZM213.315 39.256C213.483 38.14 214.167 37.444 215.187 37.444C216.219 37.444 216.891 37.96 216.987 39.256H213.315ZM128.132 55.108C129.14 55.108 129.836 54.592 130.124 54.004V55H131.12V48.724H130.124V52.528C130.124 53.656 129.284 54.244 128.396 54.244C127.412 54.244 126.944 53.752 126.944 52.648V48.724H125.948V52.696C125.948 54.424 126.884 55.108 128.132 55.108ZM135.077 55.108C136.601 55.108 137.381 54.34 137.381 53.2C137.381 51.868 136.469 51.58 135.173 51.34C134.021 51.136 133.709 50.908 133.709 50.344C133.709 49.804 134.177 49.444 134.897 49.444C135.689 49.444 136.073 49.744 136.217 50.428H137.177C137.009 49.072 136.037 48.616 134.909 48.616C133.925 48.616 132.785 49.216 132.785 50.38C132.785 51.472 133.337 51.928 134.969 52.228C135.941 52.408 136.433 52.624 136.433 53.284C136.433 53.956 136.013 54.28 135.065 54.28C134.057 54.28 133.661 53.812 133.589 53.068H132.617C132.677 54.352 133.577 55.108 135.077 55.108ZM141.467 55.108C142.883 55.108 143.927 54.448 144.143 53.188H143.147C143.015 53.92 142.451 54.28 141.479 54.28C140.195 54.28 139.511 53.488 139.463 52.06H144.191V51.736C144.191 49.492 142.823 48.616 141.371 48.616C139.643 48.616 138.431 49.936 138.431 51.832V51.928C138.431 53.86 139.691 55.108 141.467 55.108ZM139.499 51.256C139.667 50.14 140.351 49.444 141.371 49.444C142.403 49.444 143.075 49.96 143.171 51.256H139.499ZM148.083 55.108C148.995 55.108 149.871 54.532 150.231 53.92V55H151.227V45.724H150.231V49.732C149.871 49.12 149.223 48.616 148.179 48.616C146.451 48.616 145.251 49.972 145.251 51.892V51.988C145.251 53.944 146.439 55.108 148.083 55.108ZM148.191 54.28C147.135 54.28 146.283 53.524 146.283 51.94V51.844C146.283 50.32 147.027 49.444 148.275 49.444C149.499 49.444 150.267 50.2 150.267 51.808V51.904C150.267 53.512 149.355 54.28 148.191 54.28ZM157.99 55.108C158.914 55.108 159.478 54.796 159.946 54.208V55H160.942V50.86C160.942 49.108 159.85 48.616 158.65 48.616C157.438 48.616 156.298 49.144 156.166 50.572H157.162C157.258 49.804 157.738 49.444 158.602 49.444C159.562 49.444 159.946 49.864 159.946 50.86V51.316H159.046C157.438 51.316 155.902 51.808 155.902 53.26C155.902 54.544 156.826 55.108 157.99 55.108ZM158.086 54.316C157.21 54.316 156.898 53.908 156.898 53.26C156.898 52.336 157.822 52.024 159.082 52.024H159.946V52.804C159.946 53.776 159.142 54.316 158.086 54.316ZM164.843 55.108C166.367 55.108 167.147 54.34 167.147 53.2C167.147 51.868 166.235 51.58 164.939 51.34C163.787 51.136 163.475 50.908 163.475 50.344C163.475 49.804 163.943 49.444 164.663 49.444C165.455 49.444 165.839 49.744 165.983 50.428H166.943C166.775 49.072 165.803 48.616 164.675 48.616C163.691 48.616 162.551 49.216 162.551 50.38C162.551 51.472 163.103 51.928 164.735 52.228C165.707 52.408 166.199 52.624 166.199 53.284C166.199 53.956 165.779 54.28 164.831 54.28C163.823 54.28 163.427 53.812 163.355 53.068H162.383C162.443 54.352 163.343 55.108 164.843 55.108ZM173.412 55.108C174.336 55.108 174.9 54.796 175.368 54.208V55H176.364V50.86C176.364 49.108 175.272 48.616 174.072 48.616C172.86 48.616 171.72 49.144 171.588 50.572H172.584C172.68 49.804 173.16 49.444 174.024 49.444C174.984 49.444 175.368 49.864 175.368 50.86V51.316H174.468C172.86 51.316 171.324 51.808 171.324 53.26C171.324 54.544 172.248 55.108 173.412 55.108ZM173.508 54.316C172.632 54.316 172.32 53.908 172.32 53.26C172.32 52.336 173.244 52.024 174.504 52.024H175.368V52.804C175.368 53.776 174.564 54.316 173.508 54.316ZM126.008 67H127.004V63.556C127.004 62.008 127.808 61.612 129.068 61.552V60.616C127.94 60.652 127.4 61.144 127.004 61.852V60.724H126.008V67ZM132.912 67.108C134.328 67.108 135.372 66.448 135.588 65.188H134.592C134.46 65.92 133.896 66.28 132.924 66.28C131.64 66.28 130.956 65.488 130.908 64.06H135.636V63.736C135.636 61.492 134.268 60.616 132.816 60.616C131.088 60.616 129.876 61.936 129.876 63.832V63.928C129.876 65.86 131.136 67.108 132.912 67.108ZM130.944 63.256C131.112 62.14 131.796 61.444 132.816 61.444C133.848 61.444 134.52 61.96 134.616 63.256H130.944ZM137.38 67H138.376V61.564H139.912V60.724H138.376V59.596C138.376 58.96 138.64 58.516 139.288 58.516C139.564 58.516 139.816 58.576 139.996 58.648V57.808C139.744 57.724 139.576 57.688 139.252 57.688C138.004 57.688 137.38 58.432 137.38 59.704V60.724H136.48V61.564H137.38V67ZM143.576 67.108C144.992 67.108 146.036 66.448 146.252 65.188H145.256C145.124 65.92 144.56 66.28 143.588 66.28C142.304 66.28 141.62 65.488 141.572 64.06H146.3V63.736C146.3 61.492 144.932 60.616 143.48 60.616C141.752 60.616 140.54 61.936 140.54 63.832V63.928C140.54 65.86 141.8 67.108 143.576 67.108ZM141.608 63.256C141.776 62.14 142.46 61.444 143.48 61.444C144.512 61.444 145.184 61.96 145.28 63.256H141.608ZM147.828 67H148.824V63.556C148.824 62.008 149.628 61.612 150.888 61.552V60.616C149.76 60.652 149.22 61.144 148.824 61.852V60.724H147.828V67ZM154.732 67.108C156.148 67.108 157.192 66.448 157.408 65.188H156.412C156.28 65.92 155.716 66.28 154.744 66.28C153.46 66.28 152.776 65.488 152.728 64.06H157.456V63.736C157.456 61.492 156.088 60.616 154.636 60.616C152.908 60.616 151.696 61.936 151.696 63.832V63.928C151.696 65.86 152.956 67.108 154.732 67.108ZM152.764 63.256C152.932 62.14 153.616 61.444 154.636 61.444C155.668 61.444 156.34 61.96 156.436 63.256H152.764ZM158.985 67H159.981V63.196C159.981 62.068 160.809 61.48 161.733 61.48C162.741 61.48 163.209 61.972 163.209 63.076V67H164.205V63.148C164.205 61.324 163.293 60.616 161.997 60.616C160.965 60.616 160.269 61.132 159.981 61.72V60.724H158.985V67ZM168.76 67.108C170.272 67.108 171.364 66.1 171.496 64.744H170.572C170.464 65.764 169.66 66.28 168.772 66.28C167.56 66.28 166.72 65.464 166.72 63.928V63.832C166.72 62.356 167.596 61.444 168.736 61.444C169.6 61.444 170.32 61.816 170.476 62.812H171.46C171.268 61.216 170.044 60.616 168.736 60.616C167.056 60.616 165.688 61.912 165.688 63.832V63.928C165.688 65.872 167.008 67.108 168.76 67.108ZM175.568 67.108C176.984 67.108 178.028 66.448 178.244 65.188H177.248C177.116 65.92 176.552 66.28 175.58 66.28C174.296 66.28 173.612 65.488 173.564 64.06H178.292V63.736C178.292 61.492 176.924 60.616 175.472 60.616C173.744 60.616 172.532 61.936 172.532 63.832V63.928C172.532 65.86 173.792 67.108 175.568 67.108ZM173.6 63.256C173.768 62.14 174.452 61.444 175.472 61.444C176.504 61.444 177.176 61.96 177.272 63.256H173.6ZM182.996 69.184H183.992V65.968C184.352 66.592 185.084 67.108 186.116 67.108C187.844 67.108 188.972 65.788 188.972 63.868V63.772C188.972 61.816 187.76 60.616 186.116 60.616C185.204 60.616 184.352 61.168 183.992 61.78V60.724H182.996V69.184ZM186.02 66.28C184.796 66.28 183.956 65.524 183.956 63.916V63.82C183.956 62.212 184.844 61.444 186.008 61.444C187.064 61.444 187.94 62.236 187.94 63.82V63.916C187.94 65.44 187.268 66.28 186.02 66.28ZM193.124 67.108C194.912 67.108 196.22 65.8 196.22 63.904V63.808C196.22 61.924 194.912 60.616 193.136 60.616C191.36 60.616 190.052 61.936 190.052 63.82V63.916C190.052 65.752 191.336 67.108 193.124 67.108ZM193.136 66.28C191.864 66.28 191.084 65.344 191.084 63.916V63.82C191.084 62.38 191.876 61.444 193.136 61.444C194.384 61.444 195.188 62.38 195.188 63.832V63.916C195.188 65.332 194.396 66.28 193.136 66.28ZM198.266 59.416C198.626 59.416 198.926 59.116 198.926 58.756C198.926 58.396 198.626 58.096 198.266 58.096C197.906 58.096 197.606 58.396 197.606 58.756C197.606 59.116 197.906 59.416 198.266 59.416ZM197.786 67H198.782V60.724H197.786V67ZM200.821 67H201.817V63.196C201.817 62.068 202.645 61.48 203.569 61.48C204.577 61.48 205.045 61.972 205.045 63.076V67H206.041V63.148C206.041 61.324 205.129 60.616 203.833 60.616C202.801 60.616 202.105 61.132 201.817 61.72V60.724H200.821V67ZM209.9 67.084C210.308 67.084 210.548 67.024 210.752 66.952V66.112C210.536 66.196 210.296 66.244 209.984 66.244C209.48 66.244 209.204 65.944 209.204 65.332V61.564H210.668V60.724H209.204V59.296H208.208V60.724H207.308V61.564H208.208V65.428C208.208 66.412 208.76 67.084 209.9 67.084Z" fill="black"/>
<path d="M128.56 11.1C130.18 11.1 131.2 10.12 131.2 8.67C131.2 7.28 130.22 6.34 128.85 6.34C128 6.34 127.41 6.71 127.08 7.26C127.12 5.63 127.75 4.78 128.71 4.78C129.4 4.78 129.68 5.1 129.81 5.64H131.05C130.88 4.39 130.02 3.75 128.72 3.75C127.01 3.75 125.76 5.1 125.76 7.58V7.75C125.76 9.64 126.48 11.1 128.56 11.1ZM128.54 10.12C127.73 10.12 127.16 9.57 127.16 8.62C127.16 7.83 127.73 7.26 128.54 7.26C129.36 7.26 129.88 7.84 129.88 8.7C129.88 9.55 129.34 10.12 128.54 10.12ZM135.117 11.1C136.987 11.1 138.107 9.73 138.107 7.58V7.22C138.107 5.07 136.927 3.75 135.117 3.75C133.317 3.75 132.117 5.08 132.117 7.25V7.61C132.117 9.76 133.297 11.1 135.117 11.1ZM135.147 10.04C134.077 10.04 133.457 9.22 133.457 7.6V7.24C133.457 5.65 134.047 4.79 135.127 4.79C136.197 4.79 136.777 5.71 136.777 7.23V7.58C136.777 9.2 136.247 10.04 135.147 10.04ZM139.179 8.71H141.579V7.71H139.179V8.71ZM142.732 11H144.102L146.702 4.01V3.85H141.702V4.93H145.032L142.732 11ZM149.803 11.09C151.643 11.09 152.683 9.78 152.683 7.43V7.06C152.683 5 151.763 3.74 149.893 3.74C148.263 3.74 147.243 4.73 147.243 6.19C147.243 7.6 148.233 8.51 149.613 8.51C150.463 8.51 151.043 8.15 151.373 7.61C151.353 9.24 150.803 10.06 149.783 10.06C149.013 10.06 148.683 9.7 148.553 9.14H147.303C147.473 10.37 148.343 11.09 149.803 11.09ZM149.893 7.58C149.073 7.58 148.553 7.01 148.553 6.15C148.553 5.3 149.083 4.73 149.883 4.73C150.703 4.73 151.273 5.29 151.273 6.25C151.273 7.04 150.703 7.58 149.893 7.58ZM155.142 7.25C156.122 7.25 156.882 6.51 156.882 5.5C156.882 4.5 156.112 3.78 155.152 3.78C154.192 3.78 153.402 4.52 153.402 5.52C153.402 6.51 154.162 7.25 155.142 7.25ZM154.382 11H155.232L159.832 3.85H158.992L154.382 11ZM155.152 6.44C154.682 6.44 154.382 6.12 154.382 5.51C154.382 4.91 154.682 4.58 155.152 4.58C155.622 4.58 155.912 4.93 155.912 5.51C155.912 6.1 155.622 6.44 155.152 6.44ZM159.062 11.1C160.042 11.1 160.812 10.36 160.812 9.35C160.812 8.35 160.032 7.63 159.072 7.63C158.112 7.63 157.332 8.37 157.332 9.37C157.332 10.36 158.082 11.1 159.062 11.1ZM159.072 10.29C158.602 10.29 158.302 9.97 158.302 9.36C158.302 8.76 158.602 8.43 159.072 8.43C159.542 8.43 159.832 8.78 159.832 9.36C159.832 9.95 159.542 10.29 159.072 10.29Z" fill="black"/>
<path d="M246.08 43H247.04V35.776L249.98 43H250.304L253.148 35.776V43H254.192V34.42H252.752L250.184 41.104L247.532 34.42H246.08V43ZM258.889 43.108C260.677 43.108 261.985 41.8 261.985 39.904V39.808C261.985 37.924 260.677 36.616 258.901 36.616C257.125 36.616 255.817 37.936 255.817 39.82V39.916C255.817 41.752 257.101 43.108 258.889 43.108ZM258.901 42.28C257.629 42.28 256.849 41.344 256.849 39.916V39.82C256.849 38.38 257.641 37.444 258.901 37.444C260.149 37.444 260.953 38.38 260.953 39.832V39.916C260.953 41.332 260.161 42.28 258.901 42.28ZM265.892 43.108C266.804 43.108 267.68 42.532 268.04 41.92V43H269.036V33.724H268.04V37.732C267.68 37.12 267.032 36.616 265.988 36.616C264.26 36.616 263.06 37.972 263.06 39.892V39.988C263.06 41.944 264.248 43.108 265.892 43.108ZM266 42.28C264.944 42.28 264.092 41.524 264.092 39.94V39.844C264.092 38.32 264.836 37.444 266.084 37.444C267.308 37.444 268.076 38.2 268.076 39.808V39.904C268.076 41.512 267.164 42.28 266 42.28ZM273.619 43.108C275.035 43.108 276.079 42.448 276.295 41.188H275.299C275.167 41.92 274.603 42.28 273.631 42.28C272.347 42.28 271.663 41.488 271.615 40.06H276.343V39.736C276.343 37.492 274.975 36.616 273.523 36.616C271.795 36.616 270.583 37.936 270.583 39.832V39.928C270.583 41.86 271.843 43.108 273.619 43.108ZM271.651 39.256C271.819 38.14 272.503 37.444 273.523 37.444C274.555 37.444 275.227 37.96 275.323 39.256H271.651ZM277.895 43H278.903V33.724H277.895V43ZM284.621 35.416C284.981 35.416 285.281 35.116 285.281 34.756C285.281 34.396 284.981 34.096 284.621 34.096C284.261 34.096 283.961 34.396 283.961 34.756C283.961 35.116 284.261 35.416 284.621 35.416ZM284.141 43H285.137V36.724H284.141V43ZM289.12 43.108C290.644 43.108 291.424 42.34 291.424 41.2C291.424 39.868 290.512 39.58 289.216 39.34C288.064 39.136 287.752 38.908 287.752 38.344C287.752 37.804 288.22 37.444 288.94 37.444C289.732 37.444 290.116 37.744 290.26 38.428H291.22C291.052 37.072 290.08 36.616 288.952 36.616C287.968 36.616 286.828 37.216 286.828 38.38C286.828 39.472 287.38 39.928 289.012 40.228C289.984 40.408 290.476 40.624 290.476 41.284C290.476 41.956 290.056 42.28 289.108 42.28C288.1 42.28 287.704 41.812 287.632 41.068H286.66C286.72 42.352 287.62 43.108 289.12 43.108ZM296.117 43H297.113V39.196C297.113 38.068 297.941 37.48 298.865 37.48C299.873 37.48 300.341 37.972 300.341 39.076V43H301.337V39.148C301.337 37.324 300.425 36.616 299.129 36.616C298.097 36.616 297.401 37.132 297.113 37.72V33.724H296.117V43ZM303.793 35.416C304.153 35.416 304.453 35.116 304.453 34.756C304.453 34.396 304.153 34.096 303.793 34.096C303.433 34.096 303.133 34.396 303.133 34.756C303.133 35.116 303.433 35.416 303.793 35.416ZM303.313 43H304.309V36.724H303.313V43ZM308.856 45.292C310.608 45.292 311.844 44.404 311.856 42.58V36.724H310.86V37.732C310.5 37.12 309.852 36.616 308.808 36.616C307.08 36.616 305.88 38.032 305.88 39.736V39.82C305.88 41.548 307.092 42.796 308.736 42.796C309.648 42.796 310.5 42.22 310.86 41.608V42.52C310.86 43.864 310.08 44.452 308.844 44.452C307.776 44.452 307.176 44.08 307.032 43.36H306.012C306.18 44.416 306.996 45.292 308.856 45.292ZM308.844 41.968C307.788 41.968 306.912 41.152 306.912 39.784V39.688C306.912 38.368 307.656 37.444 308.904 37.444C310.128 37.444 310.896 38.26 310.896 39.664V39.748C310.896 41.152 310.008 41.968 308.844 41.968ZM313.871 43H314.867V39.196C314.867 38.068 315.695 37.48 316.619 37.48C317.627 37.48 318.095 37.972 318.095 39.076V43H319.091V39.148C319.091 37.324 318.179 36.616 316.883 36.616C315.851 36.616 315.155 37.132 314.867 37.72V33.724H313.871V43ZM321.067 43H322.075V33.724H321.067V43ZM324.677 45.184H325.685L329.153 36.724H328.133L326.393 41.224L324.473 36.724H323.405L325.865 42.352L324.677 45.184ZM248.132 55.108C249.14 55.108 249.836 54.592 250.124 54.004V55H251.12V48.724H250.124V52.528C250.124 53.656 249.284 54.244 248.396 54.244C247.412 54.244 246.944 53.752 246.944 52.648V48.724H245.948V52.696C245.948 54.424 246.884 55.108 248.132 55.108ZM255.077 55.108C256.601 55.108 257.381 54.34 257.381 53.2C257.381 51.868 256.469 51.58 255.173 51.34C254.021 51.136 253.709 50.908 253.709 50.344C253.709 49.804 254.177 49.444 254.897 49.444C255.689 49.444 256.073 49.744 256.217 50.428H257.177C257.009 49.072 256.037 48.616 254.909 48.616C253.925 48.616 252.785 49.216 252.785 50.38C252.785 51.472 253.337 51.928 254.969 52.228C255.941 52.408 256.433 52.624 256.433 53.284C256.433 53.956 256.013 54.28 255.065 54.28C254.057 54.28 253.661 53.812 253.589 53.068H252.617C252.677 54.352 253.577 55.108 255.077 55.108ZM260.471 55.108C261.395 55.108 261.959 54.796 262.427 54.208V55H263.423V50.86C263.423 49.108 262.331 48.616 261.131 48.616C259.919 48.616 258.779 49.144 258.647 50.572H259.643C259.739 49.804 260.219 49.444 261.083 49.444C262.043 49.444 262.427 49.864 262.427 50.86V51.316H261.527C259.919 51.316 258.383 51.808 258.383 53.26C258.383 54.544 259.307 55.108 260.471 55.108ZM260.567 54.316C259.691 54.316 259.379 53.908 259.379 53.26C259.379 52.336 260.303 52.024 261.563 52.024H262.427V52.804C262.427 53.776 261.623 54.316 260.567 54.316ZM268.499 55.108C270.227 55.108 271.355 53.788 271.355 51.868V51.772C271.355 49.816 270.143 48.616 268.499 48.616C267.587 48.616 266.735 49.168 266.375 49.78V45.724H265.379V55H266.375V53.968C266.735 54.592 267.479 55.108 268.499 55.108ZM268.403 54.28C267.179 54.28 266.339 53.524 266.339 51.916V51.82C266.339 50.212 267.227 49.444 268.391 49.444C269.447 49.444 270.323 50.236 270.323 51.82V51.916C270.323 53.44 269.651 54.28 268.403 54.28ZM272.927 55H273.935V45.724H272.927V55ZM278.541 55.108C279.957 55.108 281.001 54.448 281.217 53.188H280.221C280.089 53.92 279.525 54.28 278.553 54.28C277.269 54.28 276.585 53.488 276.537 52.06H281.265V51.736C281.265 49.492 279.897 48.616 278.445 48.616C276.717 48.616 275.505 49.936 275.505 51.832V51.928C275.505 53.86 276.765 55.108 278.541 55.108ZM276.573 51.256C276.741 50.14 277.425 49.444 278.445 49.444C279.477 49.444 280.149 49.96 280.245 51.256H276.573ZM287.229 55H288.321L289.785 50.296L291.093 55H292.197L294.153 48.724H293.133L291.657 53.776L290.229 48.724H289.365L287.841 53.776L286.377 48.724H285.297L287.229 55ZM296 47.416C296.36 47.416 296.66 47.116 296.66 46.756C296.66 46.396 296.36 46.096 296 46.096C295.64 46.096 295.34 46.396 295.34 46.756C295.34 47.116 295.64 47.416 296 47.416ZM295.52 55H296.516V48.724H295.52V55ZM300.463 55.084C300.871 55.084 301.111 55.024 301.315 54.952V54.112C301.099 54.196 300.859 54.244 300.547 54.244C300.043 54.244 299.767 53.944 299.767 53.332V49.564H301.231V48.724H299.767V47.296H298.771V48.724H297.871V49.564H298.771V53.428C298.771 54.412 299.323 55.084 300.463 55.084ZM302.821 55H303.817V51.196C303.817 50.068 304.645 49.48 305.569 49.48C306.577 49.48 307.045 49.972 307.045 51.076V55H308.041V51.148C308.041 49.324 307.129 48.616 305.833 48.616C304.801 48.616 304.105 49.132 303.817 49.72V45.724H302.821V55ZM314.74 55.108C315.664 55.108 316.228 54.796 316.696 54.208V55H317.692V50.86C317.692 49.108 316.6 48.616 315.4 48.616C314.188 48.616 313.048 49.144 312.916 50.572H313.912C314.008 49.804 314.488 49.444 315.352 49.444C316.312 49.444 316.696 49.864 316.696 50.86V51.316H315.796C314.188 51.316 312.652 51.808 312.652 53.26C312.652 54.544 313.576 55.108 314.74 55.108ZM314.836 54.316C313.96 54.316 313.648 53.908 313.648 53.26C313.648 52.336 314.572 52.024 315.832 52.024H316.696V52.804C316.696 53.776 315.892 54.316 314.836 54.316ZM322.013 55.108C322.925 55.108 323.801 54.532 324.161 53.92V55H325.157V45.724H324.161V49.732C323.801 49.12 323.153 48.616 322.109 48.616C320.381 48.616 319.181 49.972 319.181 51.892V51.988C319.181 53.944 320.369 55.108 322.013 55.108ZM322.121 54.28C321.065 54.28 320.213 53.524 320.213 51.94V51.844C320.213 50.32 320.957 49.444 322.205 49.444C323.429 49.444 324.197 50.2 324.197 51.808V51.904C324.197 53.512 323.285 54.28 322.121 54.28ZM329.536 55.108C330.448 55.108 331.324 54.532 331.684 53.92V55H332.68V45.724H331.684V49.732C331.324 49.12 330.676 48.616 329.632 48.616C327.904 48.616 326.704 49.972 326.704 51.892V51.988C326.704 53.944 327.892 55.108 329.536 55.108ZM329.644 54.28C328.588 54.28 327.736 53.524 327.736 51.94V51.844C327.736 50.32 328.48 49.444 329.728 49.444C330.952 49.444 331.72 50.2 331.72 51.808V51.904C331.72 53.512 330.808 54.28 329.644 54.28ZM337.264 55.108C338.68 55.108 339.724 54.448 339.94 53.188H338.944C338.812 53.92 338.248 54.28 337.276 54.28C335.992 54.28 335.308 53.488 335.26 52.06H339.988V51.736C339.988 49.492 338.62 48.616 337.168 48.616C335.44 48.616 334.228 49.936 334.228 51.832V51.928C334.228 53.86 335.488 55.108 337.264 55.108ZM335.296 51.256C335.464 50.14 336.148 49.444 337.168 49.444C338.2 49.444 338.872 49.96 338.968 51.256H335.296ZM343.88 55.108C344.792 55.108 345.668 54.532 346.028 53.92V55H347.024V45.724H346.028V49.732C345.668 49.12 345.02 48.616 343.976 48.616C342.248 48.616 341.048 49.972 341.048 51.892V51.988C341.048 53.944 342.236 55.108 343.88 55.108ZM343.988 54.28C342.932 54.28 342.08 53.524 342.08 51.94V51.844C342.08 50.32 342.824 49.444 344.072 49.444C345.296 49.444 346.064 50.2 346.064 51.808V51.904C346.064 53.512 345.152 54.28 343.988 54.28ZM248.612 67.108C250.124 67.108 251.216 66.1 251.348 64.744H250.424C250.316 65.764 249.512 66.28 248.624 66.28C247.412 66.28 246.572 65.464 246.572 63.928V63.832C246.572 62.356 247.448 61.444 248.588 61.444C249.452 61.444 250.172 61.816 250.328 62.812H251.312C251.12 61.216 249.896 60.616 248.588 60.616C246.908 60.616 245.54 61.912 245.54 63.832V63.928C245.54 65.872 246.86 67.108 248.612 67.108ZM255.456 67.108C257.244 67.108 258.552 65.8 258.552 63.904V63.808C258.552 61.924 257.244 60.616 255.468 60.616C253.692 60.616 252.384 61.936 252.384 63.82V63.916C252.384 65.752 253.668 67.108 255.456 67.108ZM255.468 66.28C254.196 66.28 253.416 65.344 253.416 63.916V63.82C253.416 62.38 254.208 61.444 255.468 61.444C256.716 61.444 257.52 62.38 257.52 63.832V63.916C257.52 65.332 256.728 66.28 255.468 66.28ZM260.094 67H261.09V63.196C261.09 62.068 261.918 61.48 262.842 61.48C263.85 61.48 264.318 61.972 264.318 63.076V67H265.314V63.148C265.314 61.324 264.402 60.616 263.106 60.616C262.074 60.616 261.378 61.132 261.09 61.72V60.724H260.094V67ZM269.174 67.084C269.582 67.084 269.822 67.024 270.026 66.952V66.112C269.81 66.196 269.57 66.244 269.258 66.244C268.754 66.244 268.478 65.944 268.478 65.332V61.564H269.942V60.724H268.478V59.296H267.482V60.724H266.582V61.564H267.482V65.428C267.482 66.412 268.034 67.084 269.174 67.084ZM274.099 67.108C275.515 67.108 276.559 66.448 276.775 65.188H275.779C275.647 65.92 275.083 66.28 274.111 66.28C272.827 66.28 272.143 65.488 272.095 64.06H276.823V63.736C276.823 61.492 275.455 60.616 274.003 60.616C272.275 60.616 271.063 61.936 271.063 63.832V63.928C271.063 65.86 272.323 67.108 274.099 67.108ZM272.131 63.256C272.299 62.14 272.983 61.444 274.003 61.444C275.035 61.444 275.707 61.96 275.803 63.256H272.131ZM277.504 67H278.572L280.3 64.468L281.992 67H283.168L280.876 63.7L282.952 60.724H281.872L280.348 63.004L278.812 60.724H277.648L279.748 63.772L277.504 67ZM286.424 67.084C286.832 67.084 287.072 67.024 287.276 66.952V66.112C287.06 66.196 286.82 66.244 286.508 66.244C286.004 66.244 285.728 65.944 285.728 65.332V61.564H287.192V60.724H285.728V59.296H284.732V60.724H283.832V61.564H284.732V65.428C284.732 66.412 285.284 67.084 286.424 67.084Z" fill="black"/>
<path d="M248.39 11.1C249.83 11.1 251.05 10.35 251.05 8.94C251.05 8.07 250.56 7.45 249.72 7.15C250.36 6.87 250.78 6.38 250.78 5.65C250.78 4.47 249.67 3.75 248.39 3.75C247.15 3.75 245.99 4.46 245.99 5.67C245.99 6.38 246.39 6.9 247.05 7.16C246.25 7.44 245.71 8.07 245.71 8.98C245.71 10.38 246.97 11.1 248.39 11.1ZM248.41 6.77C247.79 6.77 247.26 6.39 247.26 5.74C247.26 5.1 247.76 4.71 248.39 4.71C249.03 4.71 249.52 5.12 249.52 5.73C249.52 6.38 249.06 6.77 248.41 6.77ZM248.39 10.1C247.67 10.1 247.05 9.67 247.05 8.87C247.05 8.07 247.67 7.64 248.4 7.64C249.14 7.64 249.72 8.07 249.72 8.86C249.72 9.66 249.15 10.1 248.39 10.1ZM254.942 11.1C256.812 11.1 257.932 9.73 257.932 7.58V7.22C257.932 5.07 256.752 3.75 254.942 3.75C253.142 3.75 251.942 5.08 251.942 7.25V7.61C251.942 9.76 253.122 11.1 254.942 11.1ZM254.972 10.04C253.902 10.04 253.282 9.22 253.282 7.6V7.24C253.282 5.65 253.872 4.79 254.952 4.79C256.022 4.79 256.602 5.71 256.602 7.23V7.58C256.602 9.2 256.072 10.04 254.972 10.04ZM259.003 8.71H261.403V7.71H259.003V8.71ZM265.099 11.1C266.539 11.1 267.759 10.35 267.759 8.94C267.759 8.07 267.269 7.45 266.429 7.15C267.069 6.87 267.489 6.38 267.489 5.65C267.489 4.47 266.379 3.75 265.099 3.75C263.859 3.75 262.699 4.46 262.699 5.67C262.699 6.38 263.099 6.9 263.759 7.16C262.959 7.44 262.419 8.07 262.419 8.98C262.419 10.38 263.679 11.1 265.099 11.1ZM265.119 6.77C264.499 6.77 263.969 6.39 263.969 5.74C263.969 5.1 264.469 4.71 265.099 4.71C265.739 4.71 266.229 5.12 266.229 5.73C266.229 6.38 265.769 6.77 265.119 6.77ZM265.099 10.1C264.379 10.1 263.759 9.67 263.759 8.87C263.759 8.07 264.379 7.64 265.109 7.64C265.849 7.64 266.429 8.07 266.429 8.86C266.429 9.66 265.859 10.1 265.099 10.1ZM271.151 11.09C272.991 11.09 274.031 9.78 274.031 7.43V7.06C274.031 5 273.111 3.74 271.241 3.74C269.611 3.74 268.591 4.73 268.591 6.19C268.591 7.6 269.581 8.51 270.961 8.51C271.811 8.51 272.391 8.15 272.721 7.61C272.701 9.24 272.151 10.06 271.131 10.06C270.361 10.06 270.031 9.7 269.901 9.14H268.651C268.821 10.37 269.691 11.09 271.151 11.09ZM271.241 7.58C270.421 7.58 269.901 7.01 269.901 6.15C269.901 5.3 270.431 4.73 271.231 4.73C272.051 4.73 272.621 5.29 272.621 6.25C272.621 7.04 272.051 7.58 271.241 7.58ZM276.489 7.25C277.469 7.25 278.229 6.51 278.229 5.5C278.229 4.5 277.459 3.78 276.499 3.78C275.539 3.78 274.749 4.52 274.749 5.52C274.749 6.51 275.509 7.25 276.489 7.25ZM275.729 11H276.579L281.179 3.85H280.339L275.729 11ZM276.499 6.44C276.029 6.44 275.729 6.12 275.729 5.51C275.729 4.91 276.029 4.58 276.499 4.58C276.969 4.58 277.259 4.93 277.259 5.51C277.259 6.1 276.969 6.44 276.499 6.44ZM280.409 11.1C281.389 11.1 282.159 10.36 282.159 9.35C282.159 8.35 281.379 7.63 280.419 7.63C279.459 7.63 278.679 8.37 278.679 9.37C278.679 10.36 279.429 11.1 280.409 11.1ZM280.419 10.29C279.949 10.29 279.649 9.97 279.649 9.36C279.649 8.76 279.949 8.43 280.419 8.43C280.889 8.43 281.179 8.78 281.179 9.36C281.179 9.95 280.889 10.29 280.419 10.29Z" fill="black"/>
<path d="M366.08 43H367.04V35.776L369.98 43H370.304L373.148 35.776V43H374.192V34.42H372.752L370.184 41.104L367.532 34.42H366.08V43ZM378.889 43.108C380.677 43.108 381.985 41.8 381.985 39.904V39.808C381.985 37.924 380.677 36.616 378.901 36.616C377.125 36.616 375.817 37.936 375.817 39.82V39.916C375.817 41.752 377.101 43.108 378.889 43.108ZM378.901 42.28C377.629 42.28 376.849 41.344 376.849 39.916V39.82C376.849 38.38 377.641 37.444 378.901 37.444C380.149 37.444 380.953 38.38 380.953 39.832V39.916C380.953 41.332 380.161 42.28 378.901 42.28ZM385.892 43.108C386.804 43.108 387.68 42.532 388.04 41.92V43H389.036V33.724H388.04V37.732C387.68 37.12 387.032 36.616 385.988 36.616C384.26 36.616 383.06 37.972 383.06 39.892V39.988C383.06 41.944 384.248 43.108 385.892 43.108ZM386 42.28C384.944 42.28 384.092 41.524 384.092 39.94V39.844C384.092 38.32 384.836 37.444 386.084 37.444C387.308 37.444 388.076 38.2 388.076 39.808V39.904C388.076 41.512 387.164 42.28 386 42.28ZM393.619 43.108C395.035 43.108 396.079 42.448 396.295 41.188H395.299C395.167 41.92 394.603 42.28 393.631 42.28C392.347 42.28 391.663 41.488 391.615 40.06H396.343V39.736C396.343 37.492 394.975 36.616 393.523 36.616C391.795 36.616 390.583 37.936 390.583 39.832V39.928C390.583 41.86 391.843 43.108 393.619 43.108ZM391.651 39.256C391.819 38.14 392.503 37.444 393.523 37.444C394.555 37.444 395.227 37.96 395.323 39.256H391.651ZM397.895 43H398.903V33.724H397.895V43ZM406.061 43.108C407.585 43.108 408.365 42.34 408.365 41.2C408.365 39.868 407.453 39.58 406.157 39.34C405.005 39.136 404.693 38.908 404.693 38.344C404.693 37.804 405.161 37.444 405.881 37.444C406.673 37.444 407.057 37.744 407.201 38.428H408.161C407.993 37.072 407.021 36.616 405.893 36.616C404.909 36.616 403.769 37.216 403.769 38.38C403.769 39.472 404.321 39.928 405.953 40.228C406.925 40.408 407.417 40.624 407.417 41.284C407.417 41.956 406.997 42.28 406.049 42.28C405.041 42.28 404.645 41.812 404.573 41.068H403.601C403.661 42.352 404.561 43.108 406.061 43.108ZM409.883 43H410.879V39.196C410.879 38.068 411.707 37.48 412.631 37.48C413.639 37.48 414.107 37.972 414.107 39.076V43H415.103V39.148C415.103 37.324 414.191 36.616 412.895 36.616C411.863 36.616 411.167 37.132 410.879 37.72V33.724H409.883V43ZM419.659 43.108C421.447 43.108 422.755 41.8 422.755 39.904V39.808C422.755 37.924 421.447 36.616 419.671 36.616C417.895 36.616 416.587 37.936 416.587 39.82V39.916C416.587 41.752 417.871 43.108 419.659 43.108ZM419.671 42.28C418.399 42.28 417.619 41.344 417.619 39.916V39.82C417.619 38.38 418.411 37.444 419.671 37.444C420.919 37.444 421.723 38.38 421.723 39.832V39.916C421.723 41.332 420.931 42.28 419.671 42.28ZM426.421 43.108C427.429 43.108 428.125 42.592 428.413 42.004V43H429.409V36.724H428.413V40.528C428.413 41.656 427.573 42.244 426.685 42.244C425.701 42.244 425.233 41.752 425.233 40.648V36.724H424.237V40.696C424.237 42.424 425.173 43.108 426.421 43.108ZM431.446 43H432.454V33.724H431.446V43ZM436.856 43.108C437.768 43.108 438.644 42.532 439.004 41.92V43H440V33.724H439.004V37.732C438.644 37.12 437.996 36.616 436.952 36.616C435.224 36.616 434.024 37.972 434.024 39.892V39.988C434.024 41.944 435.212 43.108 436.856 43.108ZM436.964 42.28C435.908 42.28 435.056 41.524 435.056 39.94V39.844C435.056 38.32 435.8 37.444 437.048 37.444C438.272 37.444 439.04 38.2 439.04 39.808V39.904C439.04 41.512 438.128 42.28 436.964 42.28ZM448.312 43.108C450.04 43.108 451.168 41.788 451.168 39.868V39.772C451.168 37.816 449.956 36.616 448.312 36.616C447.4 36.616 446.548 37.168 446.188 37.78V33.724H445.192V43H446.188V41.968C446.548 42.592 447.292 43.108 448.312 43.108ZM448.216 42.28C446.992 42.28 446.152 41.524 446.152 39.916V39.82C446.152 38.212 447.04 37.444 448.204 37.444C449.26 37.444 450.136 38.236 450.136 39.82V39.916C450.136 41.44 449.464 42.28 448.216 42.28ZM455.283 43.108C456.699 43.108 457.743 42.448 457.959 41.188H456.963C456.831 41.92 456.267 42.28 455.295 42.28C454.011 42.28 453.327 41.488 453.279 40.06H458.007V39.736C458.007 37.492 456.639 36.616 455.187 36.616C453.459 36.616 452.247 37.936 452.247 39.832V39.928C452.247 41.86 453.507 43.108 455.283 43.108ZM453.315 39.256C453.483 38.14 454.167 37.444 455.187 37.444C456.219 37.444 456.891 37.96 456.987 39.256H453.315ZM368.132 55.108C369.14 55.108 369.836 54.592 370.124 54.004V55H371.12V48.724H370.124V52.528C370.124 53.656 369.284 54.244 368.396 54.244C367.412 54.244 366.944 53.752 366.944 52.648V48.724H365.948V52.696C365.948 54.424 366.884 55.108 368.132 55.108ZM375.077 55.108C376.601 55.108 377.381 54.34 377.381 53.2C377.381 51.868 376.469 51.58 375.173 51.34C374.021 51.136 373.709 50.908 373.709 50.344C373.709 49.804 374.177 49.444 374.897 49.444C375.689 49.444 376.073 49.744 376.217 50.428H377.177C377.009 49.072 376.037 48.616 374.909 48.616C373.925 48.616 372.785 49.216 372.785 50.38C372.785 51.472 373.337 51.928 374.969 52.228C375.941 52.408 376.433 52.624 376.433 53.284C376.433 53.956 376.013 54.28 375.065 54.28C374.057 54.28 373.661 53.812 373.589 53.068H372.617C372.677 54.352 373.577 55.108 375.077 55.108ZM381.467 55.108C382.883 55.108 383.927 54.448 384.143 53.188H383.147C383.015 53.92 382.451 54.28 381.479 54.28C380.195 54.28 379.511 53.488 379.463 52.06H384.191V51.736C384.191 49.492 382.823 48.616 381.371 48.616C379.643 48.616 378.431 49.936 378.431 51.832V51.928C378.431 53.86 379.691 55.108 381.467 55.108ZM379.499 51.256C379.667 50.14 380.351 49.444 381.371 49.444C382.403 49.444 383.075 49.96 383.171 51.256H379.499ZM388.083 55.108C388.995 55.108 389.871 54.532 390.231 53.92V55H391.227V45.724H390.231V49.732C389.871 49.12 389.223 48.616 388.179 48.616C386.451 48.616 385.251 49.972 385.251 51.892V51.988C385.251 53.944 386.439 55.108 388.083 55.108ZM388.191 54.28C387.135 54.28 386.283 53.524 386.283 51.94V51.844C386.283 50.32 387.027 49.444 388.275 49.444C389.499 49.444 390.267 50.2 390.267 51.808V51.904C390.267 53.512 389.355 54.28 388.191 54.28ZM397.99 55.108C398.914 55.108 399.478 54.796 399.946 54.208V55H400.942V50.86C400.942 49.108 399.85 48.616 398.65 48.616C397.438 48.616 396.298 49.144 396.166 50.572H397.162C397.258 49.804 397.738 49.444 398.602 49.444C399.562 49.444 399.946 49.864 399.946 50.86V51.316H399.046C397.438 51.316 395.902 51.808 395.902 53.26C395.902 54.544 396.826 55.108 397.99 55.108ZM398.086 54.316C397.21 54.316 396.898 53.908 396.898 53.26C396.898 52.336 397.822 52.024 399.082 52.024H399.946V52.804C399.946 53.776 399.142 54.316 398.086 54.316ZM402.899 55H403.895V51.196C403.895 50.068 404.723 49.48 405.647 49.48C406.655 49.48 407.123 49.972 407.123 51.076V55H408.119V51.148C408.119 49.324 407.207 48.616 405.911 48.616C404.879 48.616 404.183 49.132 403.895 49.72V48.724H402.899V55ZM412.435 55.108C413.347 55.108 414.223 54.532 414.583 53.92V55H415.579V45.724H414.583V49.732C414.223 49.12 413.575 48.616 412.531 48.616C410.803 48.616 409.603 49.972 409.603 51.892V51.988C409.603 53.944 410.791 55.108 412.435 55.108ZM412.543 54.28C411.487 54.28 410.635 53.524 410.635 51.94V51.844C410.635 50.32 411.379 49.444 412.627 49.444C413.851 49.444 414.619 50.2 414.619 51.808V51.904C414.619 53.512 413.707 54.28 412.543 54.28ZM422.678 55.084C423.086 55.084 423.326 55.024 423.53 54.952V54.112C423.314 54.196 423.074 54.244 422.762 54.244C422.258 54.244 421.982 53.944 421.982 53.332V49.564H423.446V48.724H421.982V47.296H420.986V48.724H420.086V49.564H420.986V53.428C420.986 54.412 421.538 55.084 422.678 55.084ZM425.035 55H426.031V51.556C426.031 50.008 426.835 49.612 428.095 49.552V48.616C426.967 48.652 426.427 49.144 426.031 49.852V48.724H425.035V55ZM431.671 55.108C432.679 55.108 433.375 54.592 433.663 54.004V55H434.659V48.724H433.663V52.528C433.663 53.656 432.823 54.244 431.935 54.244C430.951 54.244 430.483 53.752 430.483 52.648V48.724H429.487V52.696C429.487 54.424 430.423 55.108 431.671 55.108ZM438.616 55.108C440.14 55.108 440.92 54.34 440.92 53.2C440.92 51.868 440.008 51.58 438.712 51.34C437.56 51.136 437.248 50.908 437.248 50.344C437.248 49.804 437.716 49.444 438.436 49.444C439.228 49.444 439.612 49.744 439.756 50.428H440.716C440.548 49.072 439.576 48.616 438.448 48.616C437.464 48.616 436.324 49.216 436.324 50.38C436.324 51.472 436.876 51.928 438.508 52.228C439.48 52.408 439.972 52.624 439.972 53.284C439.972 53.956 439.552 54.28 438.604 54.28C437.596 54.28 437.2 53.812 437.128 53.068H436.156C436.216 54.352 437.116 55.108 438.616 55.108ZM444.346 55.084C444.754 55.084 444.994 55.024 445.198 54.952V54.112C444.982 54.196 444.742 54.244 444.43 54.244C443.926 54.244 443.65 53.944 443.65 53.332V49.564H445.114V48.724H443.65V47.296H442.654V48.724H441.754V49.564H442.654V53.428C442.654 54.412 443.206 55.084 444.346 55.084ZM449.271 55.108C450.687 55.108 451.731 54.448 451.947 53.188H450.951C450.819 53.92 450.255 54.28 449.283 54.28C447.999 54.28 447.315 53.488 447.267 52.06H451.995V51.736C451.995 49.492 450.627 48.616 449.175 48.616C447.447 48.616 446.235 49.936 446.235 51.832V51.928C446.235 53.86 447.495 55.108 449.271 55.108ZM447.303 51.256C447.471 50.14 448.155 49.444 449.175 49.444C450.207 49.444 450.879 49.96 450.975 51.256H447.303ZM455.888 55.108C456.8 55.108 457.676 54.532 458.036 53.92V55H459.032V45.724H458.036V49.732C457.676 49.12 457.028 48.616 455.984 48.616C454.256 48.616 453.056 49.972 453.056 51.892V51.988C453.056 53.944 454.244 55.108 455.888 55.108ZM455.996 54.28C454.94 54.28 454.088 53.524 454.088 51.94V51.844C454.088 50.32 454.832 49.444 456.08 49.444C457.304 49.444 458.072 50.2 458.072 51.808V51.904C458.072 53.512 457.16 54.28 455.996 54.28ZM464.727 47.416C465.087 47.416 465.387 47.116 465.387 46.756C465.387 46.396 465.087 46.096 464.727 46.096C464.367 46.096 464.067 46.396 464.067 46.756C464.067 47.116 464.367 47.416 464.727 47.416ZM464.247 55H465.243V48.724H464.247V55ZM467.281 55H468.277V51.196C468.277 50.068 469.105 49.48 470.029 49.48C471.037 49.48 471.505 49.972 471.505 51.076V55H472.501V51.148C472.501 49.324 471.589 48.616 470.293 48.616C469.261 48.616 468.565 49.132 468.277 49.72V48.724H467.281V55ZM368.576 67.108C369.992 67.108 371.036 66.448 371.252 65.188H370.256C370.124 65.92 369.56 66.28 368.588 66.28C367.304 66.28 366.62 65.488 366.572 64.06H371.3V63.736C371.3 61.492 369.932 60.616 368.48 60.616C366.752 60.616 365.54 61.936 365.54 63.832V63.928C365.54 65.86 366.8 67.108 368.576 67.108ZM366.608 63.256C366.776 62.14 367.46 61.444 368.48 61.444C369.512 61.444 370.184 61.96 370.28 63.256H366.608ZM374.342 67H375.614L377.87 60.724H376.838L375.002 65.992L373.142 60.724H372.062L374.342 67ZM381.572 67.108C382.988 67.108 384.032 66.448 384.248 65.188H383.252C383.12 65.92 382.556 66.28 381.584 66.28C380.3 66.28 379.616 65.488 379.568 64.06H384.296V63.736C384.296 61.492 382.928 60.616 381.476 60.616C379.748 60.616 378.536 61.936 378.536 63.832V63.928C378.536 65.86 379.796 67.108 381.572 67.108ZM379.604 63.256C379.772 62.14 380.456 61.444 381.476 61.444C382.508 61.444 383.18 61.96 383.276 63.256H379.604ZM385.824 67H386.82V63.556C386.82 62.008 387.624 61.612 388.884 61.552V60.616C387.756 60.652 387.216 61.144 386.82 61.852V60.724H385.824V67ZM390.959 69.184H391.967L395.435 60.724H394.415L392.675 65.224L390.755 60.724H389.687L392.147 66.352L390.959 69.184ZM401.866 67.108C403.39 67.108 404.17 66.34 404.17 65.2C404.17 63.868 403.258 63.58 401.962 63.34C400.81 63.136 400.498 62.908 400.498 62.344C400.498 61.804 400.966 61.444 401.686 61.444C402.478 61.444 402.862 61.744 403.006 62.428H403.966C403.798 61.072 402.826 60.616 401.698 60.616C400.714 60.616 399.574 61.216 399.574 62.38C399.574 63.472 400.126 63.928 401.758 64.228C402.73 64.408 403.222 64.624 403.222 65.284C403.222 65.956 402.802 66.28 401.854 66.28C400.846 66.28 400.45 65.812 400.378 65.068H399.406C399.466 66.352 400.366 67.108 401.866 67.108ZM408.292 67.108C409.804 67.108 410.896 66.1 411.028 64.744H410.104C409.996 65.764 409.192 66.28 408.304 66.28C407.092 66.28 406.252 65.464 406.252 63.928V63.832C406.252 62.356 407.128 61.444 408.268 61.444C409.132 61.444 409.852 61.816 410.008 62.812H410.992C410.8 61.216 409.576 60.616 408.268 60.616C406.588 60.616 405.22 61.912 405.22 63.832V63.928C405.22 65.872 406.54 67.108 408.292 67.108ZM415.099 67.108C416.515 67.108 417.559 66.448 417.775 65.188H416.779C416.647 65.92 416.083 66.28 415.111 66.28C413.827 66.28 413.143 65.488 413.095 64.06H417.823V63.736C417.823 61.492 416.455 60.616 415.003 60.616C413.275 60.616 412.063 61.936 412.063 63.832V63.928C412.063 65.86 413.323 67.108 415.099 67.108ZM413.131 63.256C413.299 62.14 413.983 61.444 415.003 61.444C416.035 61.444 416.707 61.96 416.803 63.256H413.131ZM419.352 67H420.348V63.196C420.348 62.068 421.176 61.48 422.1 61.48C423.108 61.48 423.576 61.972 423.576 63.076V67H424.572V63.148C424.572 61.324 423.66 60.616 422.364 60.616C421.332 60.616 420.636 61.132 420.348 61.72V60.724H419.352V67ZM428.096 67.108C429.02 67.108 429.584 66.796 430.052 66.208V67H431.048V62.86C431.048 61.108 429.956 60.616 428.756 60.616C427.544 60.616 426.404 61.144 426.272 62.572H427.268C427.364 61.804 427.844 61.444 428.708 61.444C429.668 61.444 430.052 61.864 430.052 62.86V63.316H429.152C427.544 63.316 426.008 63.808 426.008 65.26C426.008 66.544 426.932 67.108 428.096 67.108ZM428.192 66.316C427.316 66.316 427.004 65.908 427.004 65.26C427.004 64.336 427.928 64.024 429.188 64.024H430.052V64.804C430.052 65.776 429.248 66.316 428.192 66.316ZM433.004 67H434V63.556C434 62.008 434.804 61.612 436.064 61.552V60.616C434.936 60.652 434.396 61.144 434 61.852V60.724H433.004V67ZM438.02 59.416C438.38 59.416 438.68 59.116 438.68 58.756C438.68 58.396 438.38 58.096 438.02 58.096C437.66 58.096 437.36 58.396 437.36 58.756C437.36 59.116 437.66 59.416 438.02 59.416ZM437.54 67H438.536V60.724H437.54V67ZM443.178 67.108C444.966 67.108 446.274 65.8 446.274 63.904V63.808C446.274 61.924 444.966 60.616 443.19 60.616C441.414 60.616 440.106 61.936 440.106 63.82V63.916C440.106 65.752 441.39 67.108 443.178 67.108ZM443.19 66.28C441.918 66.28 441.138 65.344 441.138 63.916V63.82C441.138 62.38 441.93 61.444 443.19 61.444C444.438 61.444 445.242 62.38 445.242 63.832V63.916C445.242 65.332 444.45 66.28 443.19 66.28Z" fill="black"/>
<path d="M368.27 11.09C370.11 11.09 371.15 9.78 371.15 7.43V7.06C371.15 5 370.23 3.74 368.36 3.74C366.73 3.74 365.71 4.73 365.71 6.19C365.71 7.6 366.7 8.51 368.08 8.51C368.93 8.51 369.51 8.15 369.84 7.61C369.82 9.24 369.27 10.06 368.25 10.06C367.48 10.06 367.15 9.7 367.02 9.14H365.77C365.94 10.37 366.81 11.09 368.27 11.09ZM368.36 7.58C367.54 7.58 367.02 7.01 367.02 6.15C367.02 5.3 367.55 4.73 368.35 4.73C369.17 4.73 369.74 5.29 369.74 6.25C369.74 7.04 369.17 7.58 368.36 7.58ZM375.176 11.1C377.046 11.1 378.166 9.73 378.166 7.58V7.22C378.166 5.07 376.986 3.75 375.176 3.75C373.376 3.75 372.176 5.08 372.176 7.25V7.61C372.176 9.76 373.356 11.1 375.176 11.1ZM375.206 10.04C374.136 10.04 373.516 9.22 373.516 7.6V7.24C373.516 5.65 374.106 4.79 375.186 4.79C376.256 4.79 376.836 5.71 376.836 7.23V7.58C376.836 9.2 376.306 10.04 375.206 10.04ZM379.238 8.71H381.638V7.71H379.238V8.71ZM383.838 11H385.178V3.85H383.988L382.328 5.03V6.2L383.838 5.17V11ZM389.707 11.1C391.577 11.1 392.697 9.73 392.697 7.58V7.22C392.697 5.07 391.517 3.75 389.707 3.75C387.907 3.75 386.707 5.08 386.707 7.25V7.61C386.707 9.76 387.887 11.1 389.707 11.1ZM389.737 10.04C388.667 10.04 388.047 9.22 388.047 7.6V7.24C388.047 5.65 388.637 4.79 389.717 4.79C390.787 4.79 391.367 5.71 391.367 7.23V7.58C391.367 9.2 390.837 10.04 389.737 10.04ZM396.719 11.1C398.589 11.1 399.709 9.73 399.709 7.58V7.22C399.709 5.07 398.529 3.75 396.719 3.75C394.919 3.75 393.719 5.08 393.719 7.25V7.61C393.719 9.76 394.899 11.1 396.719 11.1ZM396.749 10.04C395.679 10.04 395.059 9.22 395.059 7.6V7.24C395.059 5.65 395.649 4.79 396.729 4.79C397.799 4.79 398.379 5.71 398.379 7.23V7.58C398.379 9.2 397.849 10.04 396.749 10.04ZM402.231 7.25C403.211 7.25 403.971 6.51 403.971 5.5C403.971 4.5 403.201 3.78 402.241 3.78C401.281 3.78 400.491 4.52 400.491 5.52C400.491 6.51 401.251 7.25 402.231 7.25ZM401.471 11H402.321L406.921 3.85H406.081L401.471 11ZM402.241 6.44C401.771 6.44 401.471 6.12 401.471 5.51C401.471 4.91 401.771 4.58 402.241 4.58C402.711 4.58 403.001 4.93 403.001 5.51C403.001 6.1 402.711 6.44 402.241 6.44ZM406.151 11.1C407.131 11.1 407.901 10.36 407.901 9.35C407.901 8.35 407.121 7.63 406.161 7.63C405.201 7.63 404.421 8.37 404.421 9.37C404.421 10.36 405.171 11.1 406.151 11.1ZM406.161 10.29C405.691 10.29 405.391 9.97 405.391 9.36C405.391 8.76 405.691 8.43 406.161 8.43C406.631 8.43 406.921 8.78 406.921 9.36C406.921 9.95 406.631 10.29 406.161 10.29Z" fill="black"/>
</svg>
