<svg width="480" height="72" viewBox="0 0 480 72" fill="none" xmlns="http://www.w3.org/2000/svg">
<path d="M120 18H4C1.79086 18 0 19.7909 0 22C0 24.2091 1.79086 26 4 26H120V18Z" fill="#626262"/>
<rect width="120" height="8" transform="matrix(-1 0 0 1 360 18)" fill="#AF7DEB"/>
<path d="M480 22C480 19.7909 478.209 18 476 18H360V26H476C478.209 26 480 24.2091 480 22Z" fill="#570EAA"/>
<rect width="120" height="8" transform="matrix(-1 0 0 1 240 18)" fill="#A5A5A5"/>
<path d="M5.9 42H6.7V35.98L9.15 42H9.42L11.79 35.98V42H12.66V34.85H11.46L9.32 40.42L7.11 34.85H5.9V42ZM16.5745 42.09C18.0645 42.09 19.1545 41 19.1545 39.42V39.34C19.1545 37.77 18.0645 36.68 16.5845 36.68C15.1045 36.68 14.0145 37.78 14.0145 39.35V39.43C14.0145 40.96 15.0845 42.09 16.5745 42.09ZM16.5845 41.4C15.5245 41.4 14.8745 40.62 14.8745 39.43V39.35C14.8745 38.15 15.5345 37.37 16.5845 37.37C17.6245 37.37 18.2945 38.15 18.2945 39.36V39.43C18.2945 40.61 17.6345 41.4 16.5845 41.4ZM22.4096 42.09C23.1696 42.09 23.8996 41.61 24.1996 41.1V42H25.0296V34.27H24.1996V37.61C23.8996 37.1 23.3596 36.68 22.4896 36.68C21.0496 36.68 20.0496 37.81 20.0496 39.41V39.49C20.0496 41.12 21.0396 42.09 22.4096 42.09ZM22.4996 41.4C21.6196 41.4 20.9096 40.77 20.9096 39.45V39.37C20.9096 38.1 21.5296 37.37 22.5696 37.37C23.5896 37.37 24.2296 38 24.2296 39.34V39.42C24.2296 40.76 23.4696 41.4 22.4996 41.4ZM28.8491 42.09C30.0291 42.09 30.8991 41.54 31.0791 40.49H30.2491C30.1391 41.1 29.6691 41.4 28.8591 41.4C27.7891 41.4 27.2191 40.74 27.1791 39.55H31.1191V39.28C31.1191 37.41 29.9791 36.68 28.7691 36.68C27.3291 36.68 26.3191 37.78 26.3191 39.36V39.44C26.3191 41.05 27.3691 42.09 28.8491 42.09ZM27.2091 38.88C27.3491 37.95 27.9191 37.37 28.7691 37.37C29.6291 37.37 30.1891 37.8 30.2691 38.88H27.2091ZM32.4127 42H33.2527V34.27H32.4127V42ZM39.2178 42.09C40.4878 42.09 41.1378 41.45 41.1378 40.5C41.1378 39.39 40.3778 39.15 39.2978 38.95C38.3378 38.78 38.0778 38.59 38.0778 38.12C38.0778 37.67 38.4678 37.37 39.0678 37.37C39.7278 37.37 40.0478 37.62 40.1678 38.19H40.9678C40.8278 37.06 40.0178 36.68 39.0778 36.68C38.2578 36.68 37.3078 37.18 37.3078 38.15C37.3078 39.06 37.7678 39.44 39.1278 39.69C39.9378 39.84 40.3478 40.02 40.3478 40.57C40.3478 41.13 39.9978 41.4 39.2078 41.4C38.3678 41.4 38.0378 41.01 37.9778 40.39H37.1678C37.2178 41.46 37.9678 42.09 39.2178 42.09ZM42.4025 42H43.2325V38.83C43.2325 37.89 43.9225 37.4 44.6925 37.4C45.5325 37.4 45.9225 37.81 45.9225 38.73V42H46.7525V38.79C46.7525 37.27 45.9925 36.68 44.9125 36.68C44.0525 36.68 43.4725 37.11 43.2325 37.6V34.27H42.4025V42ZM50.5491 42.09C52.0391 42.09 53.1291 41 53.1291 39.42V39.34C53.1291 37.77 52.0391 36.68 50.5591 36.68C49.0791 36.68 47.9891 37.78 47.9891 39.35V39.43C47.9891 40.96 49.0591 42.09 50.5491 42.09ZM50.5591 41.4C49.4991 41.4 48.8491 40.62 48.8491 39.43V39.35C48.8491 38.15 49.5091 37.37 50.5591 37.37C51.5991 37.37 52.2691 38.15 52.2691 39.36V39.43C52.2691 40.61 51.6091 41.4 50.5591 41.4ZM56.1842 42.09C57.0242 42.09 57.6042 41.66 57.8442 41.17V42H58.6742V36.77H57.8442V39.94C57.8442 40.88 57.1442 41.37 56.4042 41.37C55.5842 41.37 55.1942 40.96 55.1942 40.04V36.77H54.3642V40.08C54.3642 41.52 55.1442 42.09 56.1842 42.09ZM60.3717 42H61.2117V34.27H60.3717V42ZM64.8803 42.09C65.6403 42.09 66.3703 41.61 66.6703 41.1V42H67.5003V34.27H66.6703V37.61C66.3703 37.1 65.8303 36.68 64.9603 36.68C63.5203 36.68 62.5203 37.81 62.5203 39.41V39.49C62.5203 41.12 63.5103 42.09 64.8803 42.09ZM64.9703 41.4C64.0903 41.4 63.3803 40.77 63.3803 39.45V39.37C63.3803 38.1 64.0003 37.37 65.0403 37.37C66.0603 37.37 66.7003 38 66.7003 39.34V39.42C66.7003 40.76 65.9403 41.4 64.9703 41.4ZM74.4263 42.09C75.8663 42.09 76.8063 40.99 76.8063 39.39V39.31C76.8063 37.68 75.7963 36.68 74.4263 36.68C73.6663 36.68 72.9563 37.14 72.6563 37.65V34.27H71.8263V42H72.6563V41.14C72.9563 41.66 73.5763 42.09 74.4263 42.09ZM74.3463 41.4C73.3263 41.4 72.6263 40.77 72.6263 39.43V39.35C72.6263 38.01 73.3663 37.37 74.3363 37.37C75.2163 37.37 75.9463 38.03 75.9463 39.35V39.43C75.9463 40.7 75.3863 41.4 74.3463 41.4ZM80.2359 42.09C81.4159 42.09 82.2859 41.54 82.4659 40.49H81.6359C81.5259 41.1 81.0559 41.4 80.2459 41.4C79.1759 41.4 78.6059 40.74 78.5659 39.55H82.5059V39.28C82.5059 37.41 81.3659 36.68 80.1559 36.68C78.7159 36.68 77.7059 37.78 77.7059 39.36V39.44C77.7059 41.05 78.7559 42.09 80.2359 42.09ZM78.5959 38.88C78.7359 37.95 79.3059 37.37 80.1559 37.37C81.0159 37.37 81.5759 37.8 81.6559 38.88H78.5959ZM5.84 54H6.67V51.13C6.67 49.84 7.34 49.51 8.39 49.46V48.68C7.45 48.71 7 49.12 6.67 49.71V48.77H5.84V54ZM11.5933 54.09C12.7733 54.09 13.6433 53.54 13.8233 52.49H12.9933C12.8833 53.1 12.4133 53.4 11.6033 53.4C10.5333 53.4 9.96328 52.74 9.92328 51.55H13.8633V51.28C13.8633 49.41 12.7233 48.68 11.5133 48.68C10.0733 48.68 9.06328 49.78 9.06328 51.36V51.44C9.06328 53.05 10.1133 54.09 11.5933 54.09ZM9.95328 50.88C10.0933 49.95 10.6633 49.37 11.5133 49.37C12.3733 49.37 12.9333 49.8 13.0133 50.88H9.95328ZM16.138 54H17.048L18.268 50.08L19.358 54H20.278L21.908 48.77H21.058L19.828 52.98L18.638 48.77H17.918L16.648 52.98L15.428 48.77H14.528L16.138 54ZM25.0998 54.09C26.5898 54.09 27.6798 53 27.6798 51.42V51.34C27.6798 49.77 26.5898 48.68 25.1098 48.68C23.6298 48.68 22.5398 49.78 22.5398 51.35V51.43C22.5398 52.96 23.6098 54.09 25.0998 54.09ZM25.1098 53.4C24.0498 53.4 23.3998 52.62 23.3998 51.43V51.35C23.3998 50.15 24.0598 49.37 25.1098 49.37C26.1498 49.37 26.8198 50.15 26.8198 51.36V51.43C26.8198 52.61 26.1598 53.4 25.1098 53.4ZM28.965 54H29.795V51.13C29.795 49.84 30.465 49.51 31.515 49.46V48.68C30.575 48.71 30.125 49.12 29.795 49.71V48.77H28.965V54ZM32.7248 54H33.5548V51.29L35.8748 54H36.8848L34.4548 51.2L36.6948 48.77H35.7248L33.5548 51.18V46.27H32.7248V54ZM39.8257 54.09C41.0057 54.09 41.8757 53.54 42.0557 52.49H41.2257C41.1157 53.1 40.6457 53.4 39.8357 53.4C38.7657 53.4 38.1957 52.74 38.1557 51.55H42.0957V51.28C42.0957 49.41 40.9557 48.68 39.7457 48.68C38.3057 48.68 37.2957 49.78 37.2957 51.36V51.44C37.2957 53.05 38.3457 54.09 39.8257 54.09ZM38.1857 50.88C38.3257 49.95 38.8957 49.37 39.7457 49.37C40.6057 49.37 41.1657 49.8 41.2457 50.88H38.1857ZM45.3393 54.09C46.0993 54.09 46.8293 53.61 47.1293 53.1V54H47.9593V46.27H47.1293V49.61C46.8293 49.1 46.2893 48.68 45.4193 48.68C43.9793 48.68 42.9793 49.81 42.9793 51.41V51.49C42.9793 53.12 43.9693 54.09 45.3393 54.09ZM45.4293 53.4C44.5493 53.4 43.8393 52.77 43.8393 51.45V51.37C43.8393 50.1 44.4593 49.37 45.4993 49.37C46.5193 49.37 47.1593 50 47.1593 51.34V51.42C47.1593 52.76 46.3993 53.4 45.4293 53.4Z" fill="black"/>
<path d="M9.72 10.19V9.08L7.38 7.77L9.72 6.49V5.37L5.74 7.65V7.91L9.72 10.19ZM16.0112 11.1C17.6312 11.1 18.6512 10.12 18.6512 8.67C18.6512 7.28 17.6712 6.34 16.3012 6.34C15.4512 6.34 14.8612 6.71 14.5312 7.26C14.5712 5.63 15.2012 4.78 16.1612 4.78C16.8512 4.78 17.1312 5.1 17.2612 5.64H18.5012C18.3312 4.39 17.4712 3.75 16.1712 3.75C14.4612 3.75 13.2112 5.1 13.2112 7.58V7.75C13.2112 9.64 13.9312 11.1 16.0112 11.1ZM15.9912 10.12C15.1812 10.12 14.6112 9.57 14.6112 8.62C14.6112 7.83 15.1812 7.26 15.9912 7.26C16.8112 7.26 17.3312 7.84 17.3312 8.7C17.3312 9.55 16.7912 10.12 15.9912 10.12ZM22.5686 11.1C24.4386 11.1 25.5586 9.73 25.5586 7.58V7.22C25.5586 5.07 24.3786 3.75 22.5686 3.75C20.7686 3.75 19.5686 5.08 19.5686 7.25V7.61C19.5686 9.76 20.7486 11.1 22.5686 11.1ZM22.5986 10.04C21.5286 10.04 20.9086 9.22 20.9086 7.6V7.24C20.9086 5.65 21.4986 4.79 22.5786 4.79C23.6486 4.79 24.2286 5.71 24.2286 7.23V7.58C24.2286 9.2 23.6986 10.04 22.5986 10.04ZM28.081 7.25C29.061 7.25 29.821 6.51 29.821 5.5C29.821 4.5 29.051 3.78 28.091 3.78C27.131 3.78 26.341 4.52 26.341 5.52C26.341 6.51 27.101 7.25 28.081 7.25ZM27.321 11H28.171L32.771 3.85H31.931L27.321 11ZM28.091 6.44C27.621 6.44 27.321 6.12 27.321 5.51C27.321 4.91 27.621 4.58 28.091 4.58C28.561 4.58 28.851 4.93 28.851 5.51C28.851 6.1 28.561 6.44 28.091 6.44ZM32.001 11.1C32.981 11.1 33.751 10.36 33.751 9.35C33.751 8.35 32.971 7.63 32.011 7.63C31.051 7.63 30.271 8.37 30.271 9.37C30.271 10.36 31.021 11.1 32.001 11.1ZM32.011 10.29C31.541 10.29 31.241 9.97 31.241 9.36C31.241 8.76 31.541 8.43 32.011 8.43C32.481 8.43 32.771 8.78 32.771 9.36C32.771 9.95 32.481 10.29 32.011 10.29Z" fill="black"/>
<path d="M125.9 42H126.7V35.98L129.15 42H129.42L131.79 35.98V42H132.66V34.85H131.46L129.32 40.42L127.11 34.85H125.9V42ZM136.574 42.09C138.064 42.09 139.154 41 139.154 39.42V39.34C139.154 37.77 138.064 36.68 136.584 36.68C135.104 36.68 134.014 37.78 134.014 39.35V39.43C134.014 40.96 135.084 42.09 136.574 42.09ZM136.584 41.4C135.524 41.4 134.874 40.62 134.874 39.43V39.35C134.874 38.15 135.534 37.37 136.584 37.37C137.624 37.37 138.294 38.15 138.294 39.36V39.43C138.294 40.61 137.634 41.4 136.584 41.4ZM142.41 42.09C143.17 42.09 143.9 41.61 144.2 41.1V42H145.03V34.27H144.2V37.61C143.9 37.1 143.36 36.68 142.49 36.68C141.05 36.68 140.05 37.81 140.05 39.41V39.49C140.05 41.12 141.04 42.09 142.41 42.09ZM142.5 41.4C141.62 41.4 140.91 40.77 140.91 39.45V39.37C140.91 38.1 141.53 37.37 142.57 37.37C143.59 37.37 144.23 38 144.23 39.34V39.42C144.23 40.76 143.47 41.4 142.5 41.4ZM148.849 42.09C150.029 42.09 150.899 41.54 151.079 40.49H150.249C150.139 41.1 149.669 41.4 148.859 41.4C147.789 41.4 147.219 40.74 147.179 39.55H151.119V39.28C151.119 37.41 149.979 36.68 148.769 36.68C147.329 36.68 146.319 37.78 146.319 39.36V39.44C146.319 41.05 147.369 42.09 148.849 42.09ZM147.209 38.88C147.349 37.95 147.919 37.37 148.769 37.37C149.629 37.37 150.189 37.8 150.269 38.88H147.209ZM152.413 42H153.253V34.27H152.413V42ZM159.218 42.09C160.488 42.09 161.138 41.45 161.138 40.5C161.138 39.39 160.378 39.15 159.298 38.95C158.338 38.78 158.078 38.59 158.078 38.12C158.078 37.67 158.468 37.37 159.068 37.37C159.728 37.37 160.048 37.62 160.168 38.19H160.968C160.828 37.06 160.018 36.68 159.078 36.68C158.258 36.68 157.308 37.18 157.308 38.15C157.308 39.06 157.768 39.44 159.128 39.69C159.938 39.84 160.348 40.02 160.348 40.57C160.348 41.13 159.998 41.4 159.208 41.4C158.368 41.4 158.038 41.01 157.978 40.39H157.168C157.218 41.46 157.968 42.09 159.218 42.09ZM162.403 42H163.233V38.83C163.233 37.89 163.923 37.4 164.693 37.4C165.533 37.4 165.923 37.81 165.923 38.73V42H166.753V38.79C166.753 37.27 165.993 36.68 164.913 36.68C164.053 36.68 163.473 37.11 163.233 37.6V34.27H162.403V42ZM170.549 42.09C172.039 42.09 173.129 41 173.129 39.42V39.34C173.129 37.77 172.039 36.68 170.559 36.68C169.079 36.68 167.989 37.78 167.989 39.35V39.43C167.989 40.96 169.059 42.09 170.549 42.09ZM170.559 41.4C169.499 41.4 168.849 40.62 168.849 39.43V39.35C168.849 38.15 169.509 37.37 170.559 37.37C171.599 37.37 172.269 38.15 172.269 39.36V39.43C172.269 40.61 171.609 41.4 170.559 41.4ZM176.184 42.09C177.024 42.09 177.604 41.66 177.844 41.17V42H178.674V36.77H177.844V39.94C177.844 40.88 177.144 41.37 176.404 41.37C175.584 41.37 175.194 40.96 175.194 40.04V36.77H174.364V40.08C174.364 41.52 175.144 42.09 176.184 42.09ZM180.372 42H181.212V34.27H180.372V42ZM184.88 42.09C185.64 42.09 186.37 41.61 186.67 41.1V42H187.5V34.27H186.67V37.61C186.37 37.1 185.83 36.68 184.96 36.68C183.52 36.68 182.52 37.81 182.52 39.41V39.49C182.52 41.12 183.51 42.09 184.88 42.09ZM184.97 41.4C184.09 41.4 183.38 40.77 183.38 39.45V39.37C183.38 38.1 184 37.37 185.04 37.37C186.06 37.37 186.7 38 186.7 39.34V39.42C186.7 40.76 185.94 41.4 184.97 41.4ZM194.426 42.09C195.866 42.09 196.806 40.99 196.806 39.39V39.31C196.806 37.68 195.796 36.68 194.426 36.68C193.666 36.68 192.956 37.14 192.656 37.65V34.27H191.826V42H192.656V41.14C192.956 41.66 193.576 42.09 194.426 42.09ZM194.346 41.4C193.326 41.4 192.626 40.77 192.626 39.43V39.35C192.626 38.01 193.366 37.37 194.336 37.37C195.216 37.37 195.946 38.03 195.946 39.35V39.43C195.946 40.7 195.386 41.4 194.346 41.4ZM200.236 42.09C201.416 42.09 202.286 41.54 202.466 40.49H201.636C201.526 41.1 201.056 41.4 200.246 41.4C199.176 41.4 198.606 40.74 198.566 39.55H202.506V39.28C202.506 37.41 201.366 36.68 200.156 36.68C198.716 36.68 197.706 37.78 197.706 39.36V39.44C197.706 41.05 198.756 42.09 200.236 42.09ZM198.596 38.88C198.736 37.95 199.306 37.37 200.156 37.37C201.016 37.37 201.576 37.8 201.656 38.88H198.596ZM208.196 42.09C209.036 42.09 209.616 41.66 209.856 41.17V42H210.686V36.77H209.856V39.94C209.856 40.88 209.156 41.37 208.416 41.37C207.596 41.37 207.206 40.96 207.206 40.04V36.77H206.376V40.08C206.376 41.52 207.156 42.09 208.196 42.09ZM213.983 42.09C215.253 42.09 215.903 41.45 215.903 40.5C215.903 39.39 215.143 39.15 214.063 38.95C213.103 38.78 212.843 38.59 212.843 38.12C212.843 37.67 213.233 37.37 213.833 37.37C214.493 37.37 214.813 37.62 214.933 38.19H215.733C215.593 37.06 214.783 36.68 213.843 36.68C213.023 36.68 212.073 37.18 212.073 38.15C212.073 39.06 212.533 39.44 213.893 39.69C214.703 39.84 215.113 40.02 215.113 40.57C215.113 41.13 214.763 41.4 213.973 41.4C213.133 41.4 212.803 41.01 212.743 40.39H211.933C211.983 41.46 212.733 42.09 213.983 42.09ZM219.308 42.09C220.488 42.09 221.358 41.54 221.538 40.49H220.708C220.598 41.1 220.128 41.4 219.318 41.4C218.248 41.4 217.678 40.74 217.638 39.55H221.578V39.28C221.578 37.41 220.438 36.68 219.228 36.68C217.788 36.68 216.778 37.78 216.778 39.36V39.44C216.778 41.05 217.828 42.09 219.308 42.09ZM217.668 38.88C217.808 37.95 218.378 37.37 219.228 37.37C220.088 37.37 220.648 37.8 220.728 38.88H217.668ZM224.822 42.09C225.582 42.09 226.312 41.61 226.612 41.1V42H227.442V34.27H226.612V37.61C226.312 37.1 225.772 36.68 224.902 36.68C223.462 36.68 222.462 37.81 222.462 39.41V39.49C222.462 41.12 223.452 42.09 224.822 42.09ZM224.912 41.4C224.032 41.4 223.322 40.77 223.322 39.45V39.37C223.322 38.1 223.942 37.37 224.982 37.37C226.002 37.37 226.642 38 226.642 39.34V39.42C226.642 40.76 225.882 41.4 224.912 41.4ZM127.15 54.09C127.92 54.09 128.39 53.83 128.78 53.34V54H129.61V50.55C129.61 49.09 128.7 48.68 127.7 48.68C126.69 48.68 125.74 49.12 125.63 50.31H126.46C126.54 49.67 126.94 49.37 127.66 49.37C128.46 49.37 128.78 49.72 128.78 50.55V50.93H128.03C126.69 50.93 125.41 51.34 125.41 52.55C125.41 53.62 126.18 54.09 127.15 54.09ZM127.23 53.43C126.5 53.43 126.24 53.09 126.24 52.55C126.24 51.78 127.01 51.52 128.06 51.52H128.78V52.17C128.78 52.98 128.11 53.43 127.23 53.43ZM132.86 54.09C134.13 54.09 134.78 53.45 134.78 52.5C134.78 51.39 134.02 51.15 132.94 50.95C131.98 50.78 131.72 50.59 131.72 50.12C131.72 49.67 132.11 49.37 132.71 49.37C133.37 49.37 133.69 49.62 133.81 50.19H134.61C134.47 49.06 133.66 48.68 132.72 48.68C131.9 48.68 130.95 49.18 130.95 50.15C130.95 51.06 131.41 51.44 132.77 51.69C133.58 51.84 133.99 52.02 133.99 52.57C133.99 53.13 133.64 53.4 132.85 53.4C132.01 53.4 131.68 53.01 131.62 52.39H130.81C130.86 53.46 131.61 54.09 132.86 54.09ZM140.002 54.09C140.772 54.09 141.242 53.83 141.632 53.34V54H142.462V50.55C142.462 49.09 141.552 48.68 140.552 48.68C139.542 48.68 138.592 49.12 138.482 50.31H139.312C139.392 49.67 139.792 49.37 140.512 49.37C141.312 49.37 141.632 49.72 141.632 50.55V50.93H140.882C139.542 50.93 138.262 51.34 138.262 52.55C138.262 53.62 139.032 54.09 140.002 54.09ZM140.082 53.43C139.352 53.43 139.092 53.09 139.092 52.55C139.092 51.78 139.862 51.52 140.912 51.52H141.632V52.17C141.632 52.98 140.962 53.43 140.082 53.43ZM146.738 54H147.568V51.13C147.568 49.84 148.238 49.51 149.288 49.46V48.68C148.348 48.71 147.898 49.12 147.568 49.71V48.77H146.738V54ZM152.492 54.09C153.672 54.09 154.542 53.54 154.722 52.49H153.892C153.782 53.1 153.312 53.4 152.502 53.4C151.432 53.4 150.862 52.74 150.822 51.55H154.762V51.28C154.762 49.41 153.622 48.68 152.412 48.68C150.972 48.68 149.962 49.78 149.962 51.36V51.44C149.962 53.05 151.012 54.09 152.492 54.09ZM150.852 50.88C150.992 49.95 151.562 49.37 152.412 49.37C153.272 49.37 153.832 49.8 153.912 50.88H150.852ZM156.215 54H157.045V49.47H158.325V48.77H157.045V47.83C157.045 47.3 157.265 46.93 157.805 46.93C158.035 46.93 158.245 46.98 158.395 47.04V46.34C158.185 46.27 158.045 46.24 157.775 46.24C156.735 46.24 156.215 46.86 156.215 47.92V48.77H155.465V49.47H156.215V54ZM161.378 54.09C162.558 54.09 163.428 53.54 163.608 52.49H162.778C162.668 53.1 162.198 53.4 161.388 53.4C160.318 53.4 159.748 52.74 159.708 51.55H163.648V51.28C163.648 49.41 162.508 48.68 161.298 48.68C159.858 48.68 158.848 49.78 158.848 51.36V51.44C158.848 53.05 159.898 54.09 161.378 54.09ZM159.738 50.88C159.878 49.95 160.448 49.37 161.298 49.37C162.158 49.37 162.718 49.8 162.798 50.88H159.738ZM164.922 54H165.752V51.13C165.752 49.84 166.422 49.51 167.472 49.46V48.68C166.532 48.71 166.082 49.12 165.752 49.71V48.77H164.922V54ZM170.675 54.09C171.855 54.09 172.725 53.54 172.905 52.49H172.075C171.965 53.1 171.495 53.4 170.685 53.4C169.615 53.4 169.045 52.74 169.005 51.55H172.945V51.28C172.945 49.41 171.805 48.68 170.595 48.68C169.155 48.68 168.145 49.78 168.145 51.36V51.44C168.145 53.05 169.195 54.09 170.675 54.09ZM169.035 50.88C169.175 49.95 169.745 49.37 170.595 49.37C171.455 49.37 172.015 49.8 172.095 50.88H169.035ZM174.219 54H175.049V50.83C175.049 49.89 175.739 49.4 176.509 49.4C177.349 49.4 177.739 49.81 177.739 50.73V54H178.569V50.79C178.569 49.27 177.809 48.68 176.729 48.68C175.869 48.68 175.289 49.11 175.049 49.6V48.77H174.219V54ZM182.365 54.09C183.625 54.09 184.535 53.25 184.645 52.12H183.875C183.785 52.97 183.115 53.4 182.375 53.4C181.365 53.4 180.665 52.72 180.665 51.44V51.36C180.665 50.13 181.395 49.37 182.345 49.37C183.065 49.37 183.665 49.68 183.795 50.51H184.615C184.455 49.18 183.435 48.68 182.345 48.68C180.945 48.68 179.805 49.76 179.805 51.36V51.44C179.805 53.06 180.905 54.09 182.365 54.09ZM188.039 54.09C189.219 54.09 190.089 53.54 190.269 52.49H189.439C189.329 53.1 188.859 53.4 188.049 53.4C186.979 53.4 186.409 52.74 186.369 51.55H190.309V51.28C190.309 49.41 189.169 48.68 187.959 48.68C186.519 48.68 185.509 49.78 185.509 51.36V51.44C185.509 53.05 186.559 54.09 188.039 54.09ZM186.399 50.88C186.539 49.95 187.109 49.37 187.959 49.37C188.819 49.37 189.379 49.8 189.459 50.88H186.399ZM194.229 55.82H195.059V53.14C195.359 53.66 195.969 54.09 196.829 54.09C198.269 54.09 199.209 52.99 199.209 51.39V51.31C199.209 49.68 198.199 48.68 196.829 48.68C196.069 48.68 195.359 49.14 195.059 49.65V48.77H194.229V55.82ZM196.749 53.4C195.729 53.4 195.029 52.77 195.029 51.43V51.35C195.029 50.01 195.769 49.37 196.739 49.37C197.619 49.37 198.349 50.03 198.349 51.35V51.43C198.349 52.7 197.789 53.4 196.749 53.4ZM202.668 54.09C204.158 54.09 205.248 53 205.248 51.42V51.34C205.248 49.77 204.158 48.68 202.678 48.68C201.198 48.68 200.108 49.78 200.108 51.35V51.43C200.108 52.96 201.178 54.09 202.668 54.09ZM202.678 53.4C201.618 53.4 200.968 52.62 200.968 51.43V51.35C200.968 50.15 201.628 49.37 202.678 49.37C203.718 49.37 204.388 50.15 204.388 51.36V51.43C204.388 52.61 203.728 53.4 202.678 53.4ZM206.953 47.68C207.253 47.68 207.503 47.43 207.503 47.13C207.503 46.83 207.253 46.58 206.953 46.58C206.653 46.58 206.403 46.83 206.403 47.13C206.403 47.43 206.653 47.68 206.953 47.68ZM206.553 54H207.383V48.77H206.553V54ZM209.082 54H209.912V50.83C209.912 49.89 210.602 49.4 211.372 49.4C212.212 49.4 212.602 49.81 212.602 50.73V54H213.432V50.79C213.432 49.27 212.672 48.68 211.592 48.68C210.732 48.68 210.152 49.11 209.912 49.6V48.77H209.082V54ZM216.649 54.07C216.989 54.07 217.189 54.02 217.359 53.96V53.26C217.179 53.33 216.979 53.37 216.719 53.37C216.299 53.37 216.069 53.12 216.069 52.61V49.47H217.289V48.77H216.069V47.58H215.239V48.77H214.489V49.47H215.239V52.69C215.239 53.51 215.699 54.07 216.649 54.07Z" fill="black"/>
<path d="M128.56 11.1C130.18 11.1 131.2 10.12 131.2 8.67C131.2 7.28 130.22 6.34 128.85 6.34C128 6.34 127.41 6.71 127.08 7.26C127.12 5.63 127.75 4.78 128.71 4.78C129.4 4.78 129.68 5.1 129.81 5.64H131.05C130.88 4.39 130.02 3.75 128.72 3.75C127.01 3.75 125.76 5.1 125.76 7.58V7.75C125.76 9.64 126.48 11.1 128.56 11.1ZM128.54 10.12C127.73 10.12 127.16 9.57 127.16 8.62C127.16 7.83 127.73 7.26 128.54 7.26C129.36 7.26 129.88 7.84 129.88 8.7C129.88 9.55 129.34 10.12 128.54 10.12ZM135.117 11.1C136.987 11.1 138.107 9.73 138.107 7.58V7.22C138.107 5.07 136.927 3.75 135.117 3.75C133.317 3.75 132.117 5.08 132.117 7.25V7.61C132.117 9.76 133.297 11.1 135.117 11.1ZM135.147 10.04C134.077 10.04 133.457 9.22 133.457 7.6V7.24C133.457 5.65 134.047 4.79 135.127 4.79C136.197 4.79 136.777 5.71 136.777 7.23V7.58C136.777 9.2 136.247 10.04 135.147 10.04ZM139.179 8.71H141.579V7.71H139.179V8.71ZM142.732 11H144.102L146.702 4.01V3.85H141.702V4.93H145.032L142.732 11ZM149.803 11.09C151.643 11.09 152.683 9.78 152.683 7.43V7.06C152.683 5 151.763 3.74 149.893 3.74C148.263 3.74 147.243 4.73 147.243 6.19C147.243 7.6 148.233 8.51 149.613 8.51C150.463 8.51 151.043 8.15 151.373 7.61C151.353 9.24 150.803 10.06 149.783 10.06C149.013 10.06 148.683 9.7 148.553 9.14H147.303C147.473 10.37 148.343 11.09 149.803 11.09ZM149.893 7.58C149.073 7.58 148.553 7.01 148.553 6.15C148.553 5.3 149.083 4.73 149.883 4.73C150.703 4.73 151.273 5.29 151.273 6.25C151.273 7.04 150.703 7.58 149.893 7.58ZM155.142 7.25C156.122 7.25 156.882 6.51 156.882 5.5C156.882 4.5 156.112 3.78 155.152 3.78C154.192 3.78 153.402 4.52 153.402 5.52C153.402 6.51 154.162 7.25 155.142 7.25ZM154.382 11H155.232L159.832 3.85H158.992L154.382 11ZM155.152 6.44C154.682 6.44 154.382 6.12 154.382 5.51C154.382 4.91 154.682 4.58 155.152 4.58C155.622 4.58 155.912 4.93 155.912 5.51C155.912 6.1 155.622 6.44 155.152 6.44ZM159.062 11.1C160.042 11.1 160.812 10.36 160.812 9.35C160.812 8.35 160.032 7.63 159.072 7.63C158.112 7.63 157.332 8.37 157.332 9.37C157.332 10.36 158.082 11.1 159.062 11.1ZM159.072 10.29C158.602 10.29 158.302 9.97 158.302 9.36C158.302 8.76 158.602 8.43 159.072 8.43C159.542 8.43 159.832 8.78 159.832 9.36C159.832 9.95 159.542 10.29 159.072 10.29Z" fill="black"/>
<path d="M245.9 42H246.7V35.98L249.15 42H249.42L251.79 35.98V42H252.66V34.85H251.46L249.32 40.42L247.11 34.85H245.9V42ZM256.574 42.09C258.064 42.09 259.154 41 259.154 39.42V39.34C259.154 37.77 258.064 36.68 256.584 36.68C255.104 36.68 254.014 37.78 254.014 39.35V39.43C254.014 40.96 255.084 42.09 256.574 42.09ZM256.584 41.4C255.524 41.4 254.874 40.62 254.874 39.43V39.35C254.874 38.15 255.534 37.37 256.584 37.37C257.624 37.37 258.294 38.15 258.294 39.36V39.43C258.294 40.61 257.634 41.4 256.584 41.4ZM262.41 42.09C263.17 42.09 263.9 41.61 264.2 41.1V42H265.03V34.27H264.2V37.61C263.9 37.1 263.36 36.68 262.49 36.68C261.05 36.68 260.05 37.81 260.05 39.41V39.49C260.05 41.12 261.04 42.09 262.41 42.09ZM262.5 41.4C261.62 41.4 260.91 40.77 260.91 39.45V39.37C260.91 38.1 261.53 37.37 262.57 37.37C263.59 37.37 264.23 38 264.23 39.34V39.42C264.23 40.76 263.47 41.4 262.5 41.4ZM268.849 42.09C270.029 42.09 270.899 41.54 271.079 40.49H270.249C270.139 41.1 269.669 41.4 268.859 41.4C267.789 41.4 267.219 40.74 267.179 39.55H271.119V39.28C271.119 37.41 269.979 36.68 268.769 36.68C267.329 36.68 266.319 37.78 266.319 39.36V39.44C266.319 41.05 267.369 42.09 268.849 42.09ZM267.209 38.88C267.349 37.95 267.919 37.37 268.769 37.37C269.629 37.37 270.189 37.8 270.269 38.88H267.209ZM272.413 42H273.253V34.27H272.413V42ZM278.018 35.68C278.318 35.68 278.568 35.43 278.568 35.13C278.568 34.83 278.318 34.58 278.018 34.58C277.718 34.58 277.468 34.83 277.468 35.13C277.468 35.43 277.718 35.68 278.018 35.68ZM277.618 42H278.448V36.77H277.618V42ZM281.767 42.09C283.037 42.09 283.687 41.45 283.687 40.5C283.687 39.39 282.927 39.15 281.847 38.95C280.887 38.78 280.627 38.59 280.627 38.12C280.627 37.67 281.017 37.37 281.617 37.37C282.277 37.37 282.597 37.62 282.717 38.19H283.517C283.377 37.06 282.567 36.68 281.627 36.68C280.807 36.68 279.857 37.18 279.857 38.15C279.857 39.06 280.317 39.44 281.677 39.69C282.487 39.84 282.897 40.02 282.897 40.57C282.897 41.13 282.547 41.4 281.757 41.4C280.917 41.4 280.587 41.01 280.527 40.39H279.717C279.767 41.46 280.517 42.09 281.767 42.09ZM287.598 42H288.428V38.83C288.428 37.89 289.118 37.4 289.888 37.4C290.728 37.4 291.118 37.81 291.118 38.73V42H291.948V38.79C291.948 37.27 291.188 36.68 290.108 36.68C289.248 36.68 288.668 37.11 288.428 37.6V34.27H287.598V42ZM293.994 35.68C294.294 35.68 294.544 35.43 294.544 35.13C294.544 34.83 294.294 34.58 293.994 34.58C293.694 34.58 293.444 34.83 293.444 35.13C293.444 35.43 293.694 35.68 293.994 35.68ZM293.594 42H294.424V36.77H293.594V42ZM298.213 43.91C299.673 43.91 300.703 43.17 300.713 41.65V36.77H299.883V37.61C299.583 37.1 299.043 36.68 298.173 36.68C296.733 36.68 295.733 37.86 295.733 39.28V39.35C295.733 40.79 296.743 41.83 298.113 41.83C298.873 41.83 299.583 41.35 299.883 40.84V41.6C299.883 42.72 299.233 43.21 298.203 43.21C297.313 43.21 296.813 42.9 296.693 42.3H295.843C295.983 43.18 296.663 43.91 298.213 43.91ZM298.203 41.14C297.323 41.14 296.593 40.46 296.593 39.32V39.24C296.593 38.14 297.213 37.37 298.253 37.37C299.273 37.37 299.913 38.05 299.913 39.22V39.29C299.913 40.46 299.173 41.14 298.203 41.14ZM302.393 42H303.223V38.83C303.223 37.89 303.913 37.4 304.683 37.4C305.523 37.4 305.913 37.81 305.913 38.73V42H306.743V38.79C306.743 37.27 305.983 36.68 304.903 36.68C304.043 36.68 303.463 37.11 303.223 37.6V34.27H302.393V42ZM308.389 42H309.229V34.27H308.389V42ZM311.398 43.82H312.238L315.128 36.77H314.278L312.828 40.52L311.228 36.77H310.338L312.388 41.46L311.398 43.82ZM320.637 42.09C321.477 42.09 322.057 41.66 322.297 41.17V42H323.127V36.77H322.297V39.94C322.297 40.88 321.597 41.37 320.857 41.37C320.037 41.37 319.647 40.96 319.647 40.04V36.77H318.817V40.08C318.817 41.52 319.597 42.09 320.637 42.09ZM326.425 42.09C327.695 42.09 328.345 41.45 328.345 40.5C328.345 39.39 327.585 39.15 326.505 38.95C325.545 38.78 325.285 38.59 325.285 38.12C325.285 37.67 325.675 37.37 326.275 37.37C326.935 37.37 327.255 37.62 327.375 38.19H328.175C328.035 37.06 327.225 36.68 326.285 36.68C325.465 36.68 324.515 37.18 324.515 38.15C324.515 39.06 324.975 39.44 326.335 39.69C327.145 39.84 327.555 40.02 327.555 40.57C327.555 41.13 327.205 41.4 326.415 41.4C325.575 41.4 325.245 41.01 325.185 40.39H324.375C324.425 41.46 325.175 42.09 326.425 42.09ZM330.92 42.09C331.69 42.09 332.16 41.83 332.55 41.34V42H333.38V38.55C333.38 37.09 332.47 36.68 331.47 36.68C330.46 36.68 329.51 37.12 329.4 38.31H330.23C330.31 37.67 330.71 37.37 331.43 37.37C332.23 37.37 332.55 37.72 332.55 38.55V38.93H331.8C330.46 38.93 329.18 39.34 329.18 40.55C329.18 41.62 329.95 42.09 330.92 42.09ZM331 41.43C330.27 41.43 330.01 41.09 330.01 40.55C330.01 39.78 330.78 39.52 331.83 39.52H332.55V40.17C332.55 40.98 331.88 41.43 331 41.43ZM337.61 42.09C339.05 42.09 339.99 40.99 339.99 39.39V39.31C339.99 37.68 338.98 36.68 337.61 36.68C336.85 36.68 336.14 37.14 335.84 37.65V34.27H335.01V42H335.84V41.14C336.14 41.66 336.76 42.09 337.61 42.09ZM337.53 41.4C336.51 41.4 335.81 40.77 335.81 39.43V39.35C335.81 38.01 336.55 37.37 337.52 37.37C338.4 37.37 339.13 38.03 339.13 39.35V39.43C339.13 40.7 338.57 41.4 337.53 41.4ZM341.299 42H342.139V34.27H341.299V42ZM345.978 42.09C347.158 42.09 348.028 41.54 348.208 40.49H347.378C347.268 41.1 346.798 41.4 345.988 41.4C344.918 41.4 344.348 40.74 344.308 39.55H348.248V39.28C348.248 37.41 347.108 36.68 345.898 36.68C344.458 36.68 343.448 37.78 343.448 39.36V39.44C343.448 41.05 344.498 42.09 345.978 42.09ZM344.338 38.88C344.478 37.95 345.048 37.37 345.898 37.37C346.758 37.37 347.318 37.8 347.398 38.88H344.338ZM246.89 54H247.8L249.02 50.08L250.11 54H251.03L252.66 48.77H251.81L250.58 52.98L249.39 48.77H248.67L247.4 52.98L246.18 48.77H245.28L246.89 54ZM254.199 47.68C254.499 47.68 254.749 47.43 254.749 47.13C254.749 46.83 254.499 46.58 254.199 46.58C253.899 46.58 253.649 46.83 253.649 47.13C253.649 47.43 253.899 47.68 254.199 47.68ZM253.799 54H254.629V48.77H253.799V54ZM257.918 54.07C258.258 54.07 258.458 54.02 258.628 53.96V53.26C258.448 53.33 258.248 53.37 257.988 53.37C257.568 53.37 257.338 53.12 257.338 52.61V49.47H258.558V48.77H257.338V47.58H256.508V48.77H255.758V49.47H256.508V52.69C256.508 53.51 256.968 54.07 257.918 54.07ZM259.883 54H260.713V50.83C260.713 49.89 261.403 49.4 262.173 49.4C263.013 49.4 263.403 49.81 263.403 50.73V54H264.233V50.79C264.233 49.27 263.473 48.68 262.393 48.68C261.533 48.68 260.953 49.11 260.713 49.6V46.27H259.883V54ZM269.816 54.09C270.586 54.09 271.056 53.83 271.446 53.34V54H272.276V50.55C272.276 49.09 271.366 48.68 270.366 48.68C269.356 48.68 268.406 49.12 268.296 50.31H269.126C269.206 49.67 269.606 49.37 270.326 49.37C271.126 49.37 271.446 49.72 271.446 50.55V50.93H270.696C269.356 50.93 268.076 51.34 268.076 52.55C268.076 53.62 268.846 54.09 269.816 54.09ZM269.896 53.43C269.166 53.43 268.906 53.09 268.906 52.55C268.906 51.78 269.676 51.52 270.726 51.52H271.446V52.17C271.446 52.98 270.776 53.43 269.896 53.43ZM275.876 54.09C276.636 54.09 277.366 53.61 277.666 53.1V54H278.496V46.27H277.666V49.61C277.366 49.1 276.826 48.68 275.956 48.68C274.516 48.68 273.516 49.81 273.516 51.41V51.49C273.516 53.12 274.506 54.09 275.876 54.09ZM275.966 53.4C275.086 53.4 274.376 52.77 274.376 51.45V51.37C274.376 50.1 274.996 49.37 276.036 49.37C277.056 49.37 277.696 50 277.696 51.34V51.42C277.696 52.76 276.936 53.4 275.966 53.4ZM282.146 54.09C282.906 54.09 283.636 53.61 283.936 53.1V54H284.766V46.27H283.936V49.61C283.636 49.1 283.096 48.68 282.226 48.68C280.786 48.68 279.786 49.81 279.786 51.41V51.49C279.786 53.12 280.776 54.09 282.146 54.09ZM282.236 53.4C281.356 53.4 280.646 52.77 280.646 51.45V51.37C280.646 50.1 281.266 49.37 282.306 49.37C283.326 49.37 283.966 50 283.966 51.34V51.42C283.966 52.76 283.206 53.4 282.236 53.4ZM288.585 54.09C289.765 54.09 290.635 53.54 290.815 52.49H289.985C289.875 53.1 289.405 53.4 288.595 53.4C287.525 53.4 286.955 52.74 286.915 51.55H290.855V51.28C290.855 49.41 289.715 48.68 288.505 48.68C287.065 48.68 286.055 49.78 286.055 51.36V51.44C286.055 53.05 287.105 54.09 288.585 54.09ZM286.945 50.88C287.085 49.95 287.655 49.37 288.505 49.37C289.365 49.37 289.925 49.8 290.005 50.88H286.945ZM294.099 54.09C294.859 54.09 295.589 53.61 295.889 53.1V54H296.719V46.27H295.889V49.61C295.589 49.1 295.049 48.68 294.179 48.68C292.739 48.68 291.739 49.81 291.739 51.41V51.49C291.739 53.12 292.729 54.09 294.099 54.09ZM294.189 53.4C293.309 53.4 292.599 52.77 292.599 51.45V51.37C292.599 50.1 293.219 49.37 294.259 49.37C295.279 49.37 295.919 50 295.919 51.34V51.42C295.919 52.76 295.159 53.4 294.189 53.4ZM303.215 54.09C304.475 54.09 305.385 53.25 305.495 52.12H304.725C304.635 52.97 303.965 53.4 303.225 53.4C302.215 53.4 301.515 52.72 301.515 51.44V51.36C301.515 50.13 302.245 49.37 303.195 49.37C303.915 49.37 304.515 49.68 304.645 50.51H305.465C305.305 49.18 304.285 48.68 303.195 48.68C301.795 48.68 300.655 49.76 300.655 51.36V51.44C300.655 53.06 301.755 54.09 303.215 54.09ZM308.918 54.09C310.408 54.09 311.498 53 311.498 51.42V51.34C311.498 49.77 310.408 48.68 308.928 48.68C307.448 48.68 306.358 49.78 306.358 51.35V51.43C306.358 52.96 307.428 54.09 308.918 54.09ZM308.928 53.4C307.868 53.4 307.218 52.62 307.218 51.43V51.35C307.218 50.15 307.878 49.37 308.928 49.37C309.968 49.37 310.638 50.15 310.638 51.36V51.43C310.638 52.61 309.978 53.4 308.928 53.4ZM312.783 54H313.613V50.83C313.613 49.89 314.303 49.4 315.073 49.4C315.913 49.4 316.303 49.81 316.303 50.73V54H317.133V50.79C317.133 49.27 316.373 48.68 315.293 48.68C314.433 48.68 313.853 49.11 313.613 49.6V48.77H312.783V54ZM320.35 54.07C320.69 54.07 320.89 54.02 321.06 53.96V53.26C320.88 53.33 320.68 53.37 320.42 53.37C320 53.37 319.77 53.12 319.77 52.61V49.47H320.99V48.77H319.77V47.58H318.94V48.77H318.19V49.47H318.94V52.69C318.94 53.51 319.4 54.07 320.35 54.07ZM324.455 54.09C325.635 54.09 326.505 53.54 326.685 52.49H325.855C325.745 53.1 325.275 53.4 324.465 53.4C323.395 53.4 322.825 52.74 322.785 51.55H326.725V51.28C326.725 49.41 325.585 48.68 324.375 48.68C322.935 48.68 321.925 49.78 321.925 51.36V51.44C321.925 53.05 322.975 54.09 324.455 54.09ZM322.815 50.88C322.955 49.95 323.525 49.37 324.375 49.37C325.235 49.37 325.795 49.8 325.875 50.88H322.815ZM327.292 54H328.182L329.622 51.89L331.032 54H332.012L330.102 51.25L331.832 48.77H330.932L329.662 50.67L328.382 48.77H327.412L329.162 51.31L327.292 54ZM334.725 54.07C335.065 54.07 335.265 54.02 335.435 53.96V53.26C335.255 53.33 335.055 53.37 334.795 53.37C334.375 53.37 334.145 53.12 334.145 52.61V49.47H335.365V48.77H334.145V47.58H333.315V48.77H332.565V49.47H333.315V52.69C333.315 53.51 333.775 54.07 334.725 54.07Z" fill="black"/>
<path d="M248.39 11.1C249.83 11.1 251.05 10.35 251.05 8.94C251.05 8.07 250.56 7.45 249.72 7.15C250.36 6.87 250.78 6.38 250.78 5.65C250.78 4.47 249.67 3.75 248.39 3.75C247.15 3.75 245.99 4.46 245.99 5.67C245.99 6.38 246.39 6.9 247.05 7.16C246.25 7.44 245.71 8.07 245.71 8.98C245.71 10.38 246.97 11.1 248.39 11.1ZM248.41 6.77C247.79 6.77 247.26 6.39 247.26 5.74C247.26 5.1 247.76 4.71 248.39 4.71C249.03 4.71 249.52 5.12 249.52 5.73C249.52 6.38 249.06 6.77 248.41 6.77ZM248.39 10.1C247.67 10.1 247.05 9.67 247.05 8.87C247.05 8.07 247.67 7.64 248.4 7.64C249.14 7.64 249.72 8.07 249.72 8.86C249.72 9.66 249.15 10.1 248.39 10.1ZM254.942 11.1C256.812 11.1 257.932 9.73 257.932 7.58V7.22C257.932 5.07 256.752 3.75 254.942 3.75C253.142 3.75 251.942 5.08 251.942 7.25V7.61C251.942 9.76 253.122 11.1 254.942 11.1ZM254.972 10.04C253.902 10.04 253.282 9.22 253.282 7.6V7.24C253.282 5.65 253.872 4.79 254.952 4.79C256.022 4.79 256.602 5.71 256.602 7.23V7.58C256.602 9.2 256.072 10.04 254.972 10.04ZM259.003 8.71H261.403V7.71H259.003V8.71ZM265.099 11.1C266.539 11.1 267.759 10.35 267.759 8.94C267.759 8.07 267.269 7.45 266.429 7.15C267.069 6.87 267.489 6.38 267.489 5.65C267.489 4.47 266.379 3.75 265.099 3.75C263.859 3.75 262.699 4.46 262.699 5.67C262.699 6.38 263.099 6.9 263.759 7.16C262.959 7.44 262.419 8.07 262.419 8.98C262.419 10.38 263.679 11.1 265.099 11.1ZM265.119 6.77C264.499 6.77 263.969 6.39 263.969 5.74C263.969 5.1 264.469 4.71 265.099 4.71C265.739 4.71 266.229 5.12 266.229 5.73C266.229 6.38 265.769 6.77 265.119 6.77ZM265.099 10.1C264.379 10.1 263.759 9.67 263.759 8.87C263.759 8.07 264.379 7.64 265.109 7.64C265.849 7.64 266.429 8.07 266.429 8.86C266.429 9.66 265.859 10.1 265.099 10.1ZM271.151 11.09C272.991 11.09 274.031 9.78 274.031 7.43V7.06C274.031 5 273.111 3.74 271.241 3.74C269.611 3.74 268.591 4.73 268.591 6.19C268.591 7.6 269.581 8.51 270.961 8.51C271.811 8.51 272.391 8.15 272.721 7.61C272.701 9.24 272.151 10.06 271.131 10.06C270.361 10.06 270.031 9.7 269.901 9.14H268.651C268.821 10.37 269.691 11.09 271.151 11.09ZM271.241 7.58C270.421 7.58 269.901 7.01 269.901 6.15C269.901 5.3 270.431 4.73 271.231 4.73C272.051 4.73 272.621 5.29 272.621 6.25C272.621 7.04 272.051 7.58 271.241 7.58ZM276.489 7.25C277.469 7.25 278.229 6.51 278.229 5.5C278.229 4.5 277.459 3.78 276.499 3.78C275.539 3.78 274.749 4.52 274.749 5.52C274.749 6.51 275.509 7.25 276.489 7.25ZM275.729 11H276.579L281.179 3.85H280.339L275.729 11ZM276.499 6.44C276.029 6.44 275.729 6.12 275.729 5.51C275.729 4.91 276.029 4.58 276.499 4.58C276.969 4.58 277.259 4.93 277.259 5.51C277.259 6.1 276.969 6.44 276.499 6.44ZM280.409 11.1C281.389 11.1 282.159 10.36 282.159 9.35C282.159 8.35 281.379 7.63 280.419 7.63C279.459 7.63 278.679 8.37 278.679 9.37C278.679 10.36 279.429 11.1 280.409 11.1ZM280.419 10.29C279.949 10.29 279.649 9.97 279.649 9.36C279.649 8.76 279.949 8.43 280.419 8.43C280.889 8.43 281.179 8.78 281.179 9.36C281.179 9.95 280.889 10.29 280.419 10.29Z" fill="black"/>
<path d="M365.9 42H366.7V35.98L369.15 42H369.42L371.79 35.98V42H372.66V34.85H371.46L369.32 40.42L367.11 34.85H365.9V42ZM376.574 42.09C378.064 42.09 379.154 41 379.154 39.42V39.34C379.154 37.77 378.064 36.68 376.584 36.68C375.104 36.68 374.014 37.78 374.014 39.35V39.43C374.014 40.96 375.084 42.09 376.574 42.09ZM376.584 41.4C375.524 41.4 374.874 40.62 374.874 39.43V39.35C374.874 38.15 375.534 37.37 376.584 37.37C377.624 37.37 378.294 38.15 378.294 39.36V39.43C378.294 40.61 377.634 41.4 376.584 41.4ZM382.41 42.09C383.17 42.09 383.9 41.61 384.2 41.1V42H385.03V34.27H384.2V37.61C383.9 37.1 383.36 36.68 382.49 36.68C381.05 36.68 380.05 37.81 380.05 39.41V39.49C380.05 41.12 381.04 42.09 382.41 42.09ZM382.5 41.4C381.62 41.4 380.91 40.77 380.91 39.45V39.37C380.91 38.1 381.53 37.37 382.57 37.37C383.59 37.37 384.23 38 384.23 39.34V39.42C384.23 40.76 383.47 41.4 382.5 41.4ZM388.849 42.09C390.029 42.09 390.899 41.54 391.079 40.49H390.249C390.139 41.1 389.669 41.4 388.859 41.4C387.789 41.4 387.219 40.74 387.179 39.55H391.119V39.28C391.119 37.41 389.979 36.68 388.769 36.68C387.329 36.68 386.319 37.78 386.319 39.36V39.44C386.319 41.05 387.369 42.09 388.849 42.09ZM387.209 38.88C387.349 37.95 387.919 37.37 388.769 37.37C389.629 37.37 390.189 37.8 390.269 38.88H387.209ZM392.413 42H393.253V34.27H392.413V42ZM399.218 42.09C400.488 42.09 401.138 41.45 401.138 40.5C401.138 39.39 400.378 39.15 399.298 38.95C398.338 38.78 398.078 38.59 398.078 38.12C398.078 37.67 398.468 37.37 399.068 37.37C399.728 37.37 400.048 37.62 400.168 38.19H400.968C400.828 37.06 400.018 36.68 399.078 36.68C398.258 36.68 397.308 37.18 397.308 38.15C397.308 39.06 397.768 39.44 399.128 39.69C399.938 39.84 400.348 40.02 400.348 40.57C400.348 41.13 399.998 41.4 399.208 41.4C398.368 41.4 398.038 41.01 397.978 40.39H397.168C397.218 41.46 397.968 42.09 399.218 42.09ZM402.403 42H403.233V38.83C403.233 37.89 403.923 37.4 404.693 37.4C405.533 37.4 405.923 37.81 405.923 38.73V42H406.753V38.79C406.753 37.27 405.993 36.68 404.913 36.68C404.053 36.68 403.473 37.11 403.233 37.6V34.27H402.403V42ZM410.549 42.09C412.039 42.09 413.129 41 413.129 39.42V39.34C413.129 37.77 412.039 36.68 410.559 36.68C409.079 36.68 407.989 37.78 407.989 39.35V39.43C407.989 40.96 409.059 42.09 410.549 42.09ZM410.559 41.4C409.499 41.4 408.849 40.62 408.849 39.43V39.35C408.849 38.15 409.509 37.37 410.559 37.37C411.599 37.37 412.269 38.15 412.269 39.36V39.43C412.269 40.61 411.609 41.4 410.559 41.4ZM416.184 42.09C417.024 42.09 417.604 41.66 417.844 41.17V42H418.674V36.77H417.844V39.94C417.844 40.88 417.144 41.37 416.404 41.37C415.584 41.37 415.194 40.96 415.194 40.04V36.77H414.364V40.08C414.364 41.52 415.144 42.09 416.184 42.09ZM420.372 42H421.212V34.27H420.372V42ZM424.88 42.09C425.64 42.09 426.37 41.61 426.67 41.1V42H427.5V34.27H426.67V37.61C426.37 37.1 425.83 36.68 424.96 36.68C423.52 36.68 422.52 37.81 422.52 39.41V39.49C422.52 41.12 423.51 42.09 424.88 42.09ZM424.97 41.4C424.09 41.4 423.38 40.77 423.38 39.45V39.37C423.38 38.1 424 37.37 425.04 37.37C426.06 37.37 426.7 38 426.7 39.34V39.42C426.7 40.76 425.94 41.4 424.97 41.4ZM434.426 42.09C435.866 42.09 436.806 40.99 436.806 39.39V39.31C436.806 37.68 435.796 36.68 434.426 36.68C433.666 36.68 432.956 37.14 432.656 37.65V34.27H431.826V42H432.656V41.14C432.956 41.66 433.576 42.09 434.426 42.09ZM434.346 41.4C433.326 41.4 432.626 40.77 432.626 39.43V39.35C432.626 38.01 433.366 37.37 434.336 37.37C435.216 37.37 435.946 38.03 435.946 39.35V39.43C435.946 40.7 435.386 41.4 434.346 41.4ZM440.236 42.09C441.416 42.09 442.286 41.54 442.466 40.49H441.636C441.526 41.1 441.056 41.4 440.246 41.4C439.176 41.4 438.606 40.74 438.566 39.55H442.506V39.28C442.506 37.41 441.366 36.68 440.156 36.68C438.716 36.68 437.706 37.78 437.706 39.36V39.44C437.706 41.05 438.756 42.09 440.236 42.09ZM438.596 38.88C438.736 37.95 439.306 37.37 440.156 37.37C441.016 37.37 441.576 37.8 441.656 38.88H438.596ZM448.196 42.09C449.036 42.09 449.616 41.66 449.856 41.17V42H450.686V36.77H449.856V39.94C449.856 40.88 449.156 41.37 448.416 41.37C447.596 41.37 447.206 40.96 447.206 40.04V36.77H446.376V40.08C446.376 41.52 447.156 42.09 448.196 42.09ZM453.983 42.09C455.253 42.09 455.903 41.45 455.903 40.5C455.903 39.39 455.143 39.15 454.063 38.95C453.103 38.78 452.843 38.59 452.843 38.12C452.843 37.67 453.233 37.37 453.833 37.37C454.493 37.37 454.813 37.62 454.933 38.19H455.733C455.593 37.06 454.783 36.68 453.843 36.68C453.023 36.68 452.073 37.18 452.073 38.15C452.073 39.06 452.533 39.44 453.893 39.69C454.703 39.84 455.113 40.02 455.113 40.57C455.113 41.13 454.763 41.4 453.973 41.4C453.133 41.4 452.803 41.01 452.743 40.39H451.933C451.983 41.46 452.733 42.09 453.983 42.09ZM459.308 42.09C460.488 42.09 461.358 41.54 461.538 40.49H460.708C460.598 41.1 460.128 41.4 459.318 41.4C458.248 41.4 457.678 40.74 457.638 39.55H461.578V39.28C461.578 37.41 460.438 36.68 459.228 36.68C457.788 36.68 456.778 37.78 456.778 39.36V39.44C456.778 41.05 457.828 42.09 459.308 42.09ZM457.668 38.88C457.808 37.95 458.378 37.37 459.228 37.37C460.088 37.37 460.648 37.8 460.728 38.88H457.668ZM464.822 42.09C465.582 42.09 466.312 41.61 466.612 41.1V42H467.442V34.27H466.612V37.61C466.312 37.1 465.772 36.68 464.902 36.68C463.462 36.68 462.462 37.81 462.462 39.41V39.49C462.462 41.12 463.452 42.09 464.822 42.09ZM464.912 41.4C464.032 41.4 463.322 40.77 463.322 39.45V39.37C463.322 38.1 463.942 37.37 464.982 37.37C466.002 37.37 466.642 38 466.642 39.34V39.42C466.642 40.76 465.882 41.4 464.912 41.4ZM367.15 54.09C367.92 54.09 368.39 53.83 368.78 53.34V54H369.61V50.55C369.61 49.09 368.7 48.68 367.7 48.68C366.69 48.68 365.74 49.12 365.63 50.31H366.46C366.54 49.67 366.94 49.37 367.66 49.37C368.46 49.37 368.78 49.72 368.78 50.55V50.93H368.03C366.69 50.93 365.41 51.34 365.41 52.55C365.41 53.62 366.18 54.09 367.15 54.09ZM367.23 53.43C366.5 53.43 366.24 53.09 366.24 52.55C366.24 51.78 367.01 51.52 368.06 51.52H368.78V52.17C368.78 52.98 368.11 53.43 367.23 53.43ZM371.24 54H372.07V50.83C372.07 49.89 372.76 49.4 373.53 49.4C374.37 49.4 374.76 49.81 374.76 50.73V54H375.59V50.79C375.59 49.27 374.83 48.68 373.75 48.68C372.89 48.68 372.31 49.11 372.07 49.6V48.77H371.24V54ZM379.187 54.09C379.947 54.09 380.677 53.61 380.977 53.1V54H381.807V46.27H380.977V49.61C380.677 49.1 380.137 48.68 379.267 48.68C377.827 48.68 376.827 49.81 376.827 51.41V51.49C376.827 53.12 377.817 54.09 379.187 54.09ZM379.277 53.4C378.397 53.4 377.687 52.77 377.687 51.45V51.37C377.687 50.1 378.307 49.37 379.347 49.37C380.367 49.37 381.007 50 381.007 51.34V51.42C381.007 52.76 380.247 53.4 379.277 53.4ZM387.723 54.07C388.063 54.07 388.263 54.02 388.433 53.96V53.26C388.253 53.33 388.053 53.37 387.793 53.37C387.373 53.37 387.143 53.12 387.143 52.61V49.47H388.363V48.77H387.143V47.58H386.313V48.77H385.563V49.47H386.313V52.69C386.313 53.51 386.773 54.07 387.723 54.07ZM389.688 54H390.518V51.13C390.518 49.84 391.188 49.51 392.238 49.46V48.68C391.298 48.71 390.848 49.12 390.518 49.71V48.77H389.688V54ZM395.217 54.09C396.057 54.09 396.637 53.66 396.877 53.17V54H397.707V48.77H396.877V51.94C396.877 52.88 396.177 53.37 395.437 53.37C394.617 53.37 394.227 52.96 394.227 52.04V48.77H393.397V52.08C393.397 53.52 394.177 54.09 395.217 54.09ZM401.005 54.09C402.275 54.09 402.925 53.45 402.925 52.5C402.925 51.39 402.165 51.15 401.085 50.95C400.125 50.78 399.865 50.59 399.865 50.12C399.865 49.67 400.255 49.37 400.855 49.37C401.515 49.37 401.835 49.62 401.955 50.19H402.755C402.615 49.06 401.805 48.68 400.865 48.68C400.045 48.68 399.095 49.18 399.095 50.15C399.095 51.06 399.555 51.44 400.915 51.69C401.725 51.84 402.135 52.02 402.135 52.57C402.135 53.13 401.785 53.4 400.995 53.4C400.155 53.4 399.825 53.01 399.765 52.39H398.955C399.005 53.46 399.755 54.09 401.005 54.09ZM405.78 54.07C406.12 54.07 406.32 54.02 406.49 53.96V53.26C406.31 53.33 406.11 53.37 405.85 53.37C405.43 53.37 405.2 53.12 405.2 52.61V49.47H406.42V48.77H405.2V47.58H404.37V48.77H403.62V49.47H404.37V52.69C404.37 53.51 404.83 54.07 405.78 54.07ZM409.884 54.09C411.064 54.09 411.934 53.54 412.114 52.49H411.284C411.174 53.1 410.704 53.4 409.894 53.4C408.824 53.4 408.254 52.74 408.214 51.55H412.154V51.28C412.154 49.41 411.014 48.68 409.804 48.68C408.364 48.68 407.354 49.78 407.354 51.36V51.44C407.354 53.05 408.404 54.09 409.884 54.09ZM408.244 50.88C408.384 49.95 408.954 49.37 409.804 49.37C410.664 49.37 411.224 49.8 411.304 50.88H408.244ZM415.398 54.09C416.158 54.09 416.888 53.61 417.188 53.1V54H418.018V46.27H417.188V49.61C416.888 49.1 416.348 48.68 415.478 48.68C414.038 48.68 413.038 49.81 413.038 51.41V51.49C413.038 53.12 414.028 54.09 415.398 54.09ZM415.488 53.4C414.608 53.4 413.898 52.77 413.898 51.45V51.37C413.898 50.1 414.518 49.37 415.558 49.37C416.578 49.37 417.218 50 417.218 51.34V51.42C417.218 52.76 416.458 53.4 415.488 53.4ZM422.764 47.68C423.064 47.68 423.314 47.43 423.314 47.13C423.314 46.83 423.064 46.58 422.764 46.58C422.464 46.58 422.214 46.83 422.214 47.13C422.214 47.43 422.464 47.68 422.764 47.68ZM422.364 54H423.194V48.77H422.364V54ZM424.893 54H425.723V50.83C425.723 49.89 426.413 49.4 427.183 49.4C428.023 49.4 428.413 49.81 428.413 50.73V54H429.243V50.79C429.243 49.27 428.483 48.68 427.403 48.68C426.543 48.68 425.963 49.11 425.723 49.6V48.77H424.893V54ZM435.656 54.09C436.836 54.09 437.706 53.54 437.886 52.49H437.056C436.946 53.1 436.476 53.4 435.666 53.4C434.596 53.4 434.026 52.74 433.986 51.55H437.926V51.28C437.926 49.41 436.786 48.68 435.576 48.68C434.136 48.68 433.126 49.78 433.126 51.36V51.44C433.126 53.05 434.176 54.09 435.656 54.09ZM434.016 50.88C434.156 49.95 434.726 49.37 435.576 49.37C436.436 49.37 436.996 49.8 437.076 50.88H434.016ZM440.461 54H441.521L443.401 48.77H442.541L441.011 53.16L439.461 48.77H438.561L440.461 54ZM446.486 54.09C447.666 54.09 448.536 53.54 448.716 52.49H447.886C447.776 53.1 447.306 53.4 446.496 53.4C445.426 53.4 444.856 52.74 444.816 51.55H448.756V51.28C448.756 49.41 447.616 48.68 446.406 48.68C444.966 48.68 443.956 49.78 443.956 51.36V51.44C443.956 53.05 445.006 54.09 446.486 54.09ZM444.846 50.88C444.986 49.95 445.556 49.37 446.406 49.37C447.266 49.37 447.826 49.8 447.906 50.88H444.846ZM450.029 54H450.859V51.13C450.859 49.84 451.529 49.51 452.579 49.46V48.68C451.639 48.71 451.189 49.12 450.859 49.71V48.77H450.029V54ZM454.308 55.82H455.148L458.038 48.77H457.188L455.738 52.52L454.138 48.77H453.248L455.298 53.46L454.308 55.82ZM367.46 66.09C368.73 66.09 369.38 65.45 369.38 64.5C369.38 63.39 368.62 63.15 367.54 62.95C366.58 62.78 366.32 62.59 366.32 62.12C366.32 61.67 366.71 61.37 367.31 61.37C367.97 61.37 368.29 61.62 368.41 62.19H369.21C369.07 61.06 368.26 60.68 367.32 60.68C366.5 60.68 365.55 61.18 365.55 62.15C365.55 63.06 366.01 63.44 367.37 63.69C368.18 63.84 368.59 64.02 368.59 64.57C368.59 65.13 368.24 65.4 367.45 65.4C366.61 65.4 366.28 65.01 366.22 64.39H365.41C365.46 65.46 366.21 66.09 367.46 66.09ZM372.815 66.09C374.075 66.09 374.985 65.25 375.095 64.12H374.325C374.235 64.97 373.565 65.4 372.825 65.4C371.815 65.4 371.115 64.72 371.115 63.44V63.36C371.115 62.13 371.845 61.37 372.795 61.37C373.515 61.37 374.115 61.68 374.245 62.51H375.065C374.905 61.18 373.885 60.68 372.795 60.68C371.395 60.68 370.255 61.76 370.255 63.36V63.44C370.255 65.06 371.355 66.09 372.815 66.09ZM378.488 66.09C379.668 66.09 380.538 65.54 380.718 64.49H379.888C379.778 65.1 379.308 65.4 378.498 65.4C377.428 65.4 376.858 64.74 376.818 63.55H380.758V63.28C380.758 61.41 379.618 60.68 378.408 60.68C376.968 60.68 375.958 61.78 375.958 63.36V63.44C375.958 65.05 377.008 66.09 378.488 66.09ZM376.848 62.88C376.988 61.95 377.558 61.37 378.408 61.37C379.268 61.37 379.828 61.8 379.908 62.88H376.848ZM382.031 66H382.861V62.83C382.861 61.89 383.551 61.4 384.321 61.4C385.161 61.4 385.551 61.81 385.551 62.73V66H386.381V62.79C386.381 61.27 385.621 60.68 384.541 60.68C383.681 60.68 383.101 61.11 382.861 61.6V60.77H382.031V66ZM389.318 66.09C390.088 66.09 390.558 65.83 390.948 65.34V66H391.778V62.55C391.778 61.09 390.868 60.68 389.868 60.68C388.858 60.68 387.908 61.12 387.798 62.31H388.628C388.708 61.67 389.108 61.37 389.828 61.37C390.628 61.37 390.948 61.72 390.948 62.55V62.93H390.198C388.858 62.93 387.578 63.34 387.578 64.55C387.578 65.62 388.348 66.09 389.318 66.09ZM389.398 65.43C388.668 65.43 388.408 65.09 388.408 64.55C388.408 63.78 389.178 63.52 390.228 63.52H390.948V64.17C390.948 64.98 390.278 65.43 389.398 65.43ZM393.408 66H394.238V63.13C394.238 61.84 394.908 61.51 395.958 61.46V60.68C395.018 60.71 394.568 61.12 394.238 61.71V60.77H393.408V66ZM397.588 59.68C397.888 59.68 398.138 59.43 398.138 59.13C398.138 58.83 397.888 58.58 397.588 58.58C397.288 58.58 397.038 58.83 397.038 59.13C397.038 59.43 397.288 59.68 397.588 59.68ZM397.188 66H398.018V60.77H397.188V66ZM401.887 66.09C403.377 66.09 404.467 65 404.467 63.42V63.34C404.467 61.77 403.377 60.68 401.897 60.68C400.417 60.68 399.327 61.78 399.327 63.35V63.43C399.327 64.96 400.397 66.09 401.887 66.09ZM401.897 65.4C400.837 65.4 400.187 64.62 400.187 63.43V63.35C400.187 62.15 400.847 61.37 401.897 61.37C402.937 61.37 403.607 62.15 403.607 63.36V63.43C403.607 64.61 402.947 65.4 401.897 65.4Z" fill="black"/>
<path d="M368.27 11.09C370.11 11.09 371.15 9.78 371.15 7.43V7.06C371.15 5 370.23 3.74 368.36 3.74C366.73 3.74 365.71 4.73 365.71 6.19C365.71 7.6 366.7 8.51 368.08 8.51C368.93 8.51 369.51 8.15 369.84 7.61C369.82 9.24 369.27 10.06 368.25 10.06C367.48 10.06 367.15 9.7 367.02 9.14H365.77C365.94 10.37 366.81 11.09 368.27 11.09ZM368.36 7.58C367.54 7.58 367.02 7.01 367.02 6.15C367.02 5.3 367.55 4.73 368.35 4.73C369.17 4.73 369.74 5.29 369.74 6.25C369.74 7.04 369.17 7.58 368.36 7.58ZM375.176 11.1C377.046 11.1 378.166 9.73 378.166 7.58V7.22C378.166 5.07 376.986 3.75 375.176 3.75C373.376 3.75 372.176 5.08 372.176 7.25V7.61C372.176 9.76 373.356 11.1 375.176 11.1ZM375.206 10.04C374.136 10.04 373.516 9.22 373.516 7.6V7.24C373.516 5.65 374.106 4.79 375.186 4.79C376.256 4.79 376.836 5.71 376.836 7.23V7.58C376.836 9.2 376.306 10.04 375.206 10.04ZM379.238 8.71H381.638V7.71H379.238V8.71ZM383.838 11H385.178V3.85H383.988L382.328 5.03V6.2L383.838 5.17V11ZM389.707 11.1C391.577 11.1 392.697 9.73 392.697 7.58V7.22C392.697 5.07 391.517 3.75 389.707 3.75C387.907 3.75 386.707 5.08 386.707 7.25V7.61C386.707 9.76 387.887 11.1 389.707 11.1ZM389.737 10.04C388.667 10.04 388.047 9.22 388.047 7.6V7.24C388.047 5.65 388.637 4.79 389.717 4.79C390.787 4.79 391.367 5.71 391.367 7.23V7.58C391.367 9.2 390.837 10.04 389.737 10.04ZM396.719 11.1C398.589 11.1 399.709 9.73 399.709 7.58V7.22C399.709 5.07 398.529 3.75 396.719 3.75C394.919 3.75 393.719 5.08 393.719 7.25V7.61C393.719 9.76 394.899 11.1 396.719 11.1ZM396.749 10.04C395.679 10.04 395.059 9.22 395.059 7.6V7.24C395.059 5.65 395.649 4.79 396.729 4.79C397.799 4.79 398.379 5.71 398.379 7.23V7.58C398.379 9.2 397.849 10.04 396.749 10.04ZM402.231 7.25C403.211 7.25 403.971 6.51 403.971 5.5C403.971 4.5 403.201 3.78 402.241 3.78C401.281 3.78 400.491 4.52 400.491 5.52C400.491 6.51 401.251 7.25 402.231 7.25ZM401.471 11H402.321L406.921 3.85H406.081L401.471 11ZM402.241 6.44C401.771 6.44 401.471 6.12 401.471 5.51C401.471 4.91 401.771 4.58 402.241 4.58C402.711 4.58 403.001 4.93 403.001 5.51C403.001 6.1 402.711 6.44 402.241 6.44ZM406.151 11.1C407.131 11.1 407.901 10.36 407.901 9.35C407.901 8.35 407.121 7.63 406.161 7.63C405.201 7.63 404.421 8.37 404.421 9.37C404.421 10.36 405.171 11.1 406.151 11.1ZM406.161 10.29C405.691 10.29 405.391 9.97 405.391 9.36C405.391 8.76 405.691 8.43 406.161 8.43C406.631 8.43 406.921 8.78 406.921 9.36C406.921 9.95 406.631 10.29 406.161 10.29Z" fill="black"/>
</svg>
